<?xml version="1.0" standalone="no"?>
<!DOCTYPE svg PUBLIC "-//W3C//DTD SVG 20010904//EN"
 "http://www.w3.org/TR/2001/REC-SVG-20010904/DTD/svg10.dtd">
<svg version="1.0" xmlns="http://www.w3.org/2000/svg"
 width="512.000000pt" height="512.000000pt" viewBox="0 0 512.000000 512.000000"
 preserveAspectRatio="xMidYMid meet">

<g transform="translate(0.000000,512.000000) scale(0.100000,-0.100000)"
fill="#000000" stroke="none">
<path d="M955 5005 c-45 -23 -58 -51 -63 -140 l-4 -80 -81 -32 -80 -32 -64 54
c-58 49 -69 55 -110 55 -45 0 -48 -2 -155 -108 -106 -107 -108 -110 -108 -155
0 -41 6 -52 55 -110 l54 -64 -32 -80 -32 -81 -80 -4 c-138 -8 -155 -33 -155
-228 0 -188 23 -220 154 -220 63 0 96 -14 96 -42 0 -6 12 -37 27 -70 l26 -59
-45 -47 c-56 -58 -68 -80 -68 -128 0 -33 10 -47 97 -136 54 -55 111 -107 127
-115 45 -24 88 -9 155 52 l59 55 63 -29 c35 -16 72 -31 82 -35 13 -4 17 -17
17 -63 0 -78 15 -128 47 -153 23 -18 40 -20 179 -20 l154 0 31 28 c30 27 32
34 39 115 4 48 9 88 11 90 2 1 38 16 80 33 l76 31 61 -53 c104 -89 133 -84
263 43 139 135 145 169 54 276 l-53 62 18 35 c10 19 23 54 30 78 7 23 14 42
14 43 1 0 41 4 90 8 83 7 91 10 118 40 l28 31 0 154 c0 139 -2 156 -20 179
-25 32 -75 47 -153 47 -46 0 -59 4 -63 18 -4 9 -19 46 -35 81 l-29 63 55 59
c61 67 76 110 52 155 -8 16 -60 73 -115 127 -89 87 -103 97 -136 97 -48 0 -70
-12 -128 -68 l-47 -45 -59 26 c-33 15 -64 27 -70 27 -28 0 -42 33 -42 96 0 76
-18 117 -60 139 -41 21 -282 21 -325 0z m269 -142 c3 -21 6 -57 6 -80 0 -33 7
-50 28 -72 31 -34 186 -101 248 -108 38 -4 46 -1 106 50 l65 56 73 -74 73 -73
-51 -58 c-70 -79 -74 -104 -29 -203 20 -42 39 -89 42 -103 4 -14 19 -38 35
-53 25 -24 39 -28 112 -34 l83 -6 3 -101 3 -101 -47 -7 c-26 -3 -64 -6 -85 -6
-65 0 -89 -34 -167 -235 -21 -55 -11 -87 48 -150 28 -28 50 -56 50 -61 0 -5
-31 -40 -69 -78 -76 -76 -79 -76 -136 -16 -35 37 -75 60 -106 60 -12 0 -56
-15 -98 -34 -42 -19 -88 -38 -104 -41 -41 -11 -77 -59 -77 -104 0 -21 -3 -59
-6 -85 l-7 -47 -101 3 -101 3 -2 45 c-6 96 -14 128 -40 154 -14 15 -38 29 -52
33 -14 3 -61 21 -103 41 -98 44 -124 40 -202 -30 l-58 -51 -73 73 -74 73 56
65 c51 60 54 68 50 106 -7 62 -74 217 -108 249 -22 20 -39 27 -72 27 -23 0
-59 3 -80 6 l-37 7 0 102 0 102 80 5 c104 6 126 22 161 114 14 38 33 83 42
101 20 37 22 85 6 116 -7 12 -32 44 -57 70 l-45 49 73 73 c80 81 82 81 135 25
58 -61 117 -75 178 -43 18 9 63 28 101 42 92 35 108 57 114 161 l5 80 102 0
102 0 7 -37z"/>
<path d="M1011 4509 c-76 -15 -182 -72 -249 -134 -71 -65 -135 -181 -152 -274
-49 -267 109 -520 374 -596 88 -26 239 -17 326 19 126 51 243 170 291 294 31
80 38 237 14 318 -42 146 -139 264 -267 327 -112 54 -220 69 -337 46z m231
-130 c109 -36 183 -101 234 -205 115 -235 -34 -518 -298 -564 -109 -19 -229
15 -321 90 -131 110 -175 317 -99 472 91 185 294 271 484 207z"/>
<path d="M3735 4980 c-256 -41 -500 -169 -669 -352 -505 -545 -356 -1415 301
-1765 160 -86 335 -128 528 -127 308 1 578 114 795 334 343 346 426 862 209
1294 -61 120 -113 192 -213 292 -161 162 -343 261 -569 310 -87 19 -299 26
-382 14z m297 -120 c249 -43 422 -133 589 -306 174 -181 268 -405 275 -654 6
-214 -38 -386 -142 -562 -67 -113 -230 -276 -339 -340 -179 -104 -324 -143
-530 -142 -270 1 -475 80 -672 258 -152 138 -263 328 -309 531 -29 124 -25
340 8 465 106 396 432 691 828 749 41 6 86 13 100 15 53 7 82 5 192 -14z"/>
<path d="M3360 4165 l0 -65 151 0 c138 0 155 -2 191 -22 58 -33 81 -77 76
-142 -2 -30 -13 -64 -24 -79 -20 -28 -106 -77 -135 -77 -18 0 -29 37 -29 96 0
43 -9 43 -103 0 l-74 -34 8 -56 c27 -170 147 -339 287 -404 49 -23 70 -27 147
-26 50 0 102 6 118 12 26 11 27 13 27 96 l0 85 -32 -10 c-64 -18 -131 -11
-195 21 -33 17 -68 39 -77 49 -17 18 -16 19 6 25 81 22 107 35 156 81 38 35
57 46 60 36 11 -33 76 -91 114 -102 22 -5 43 -8 46 -4 3 3 16 29 28 58 l23 52
-28 12 c-39 17 -54 39 -47 68 7 29 46 42 85 29 54 -19 78 -130 46 -219 -8 -21
-13 -40 -12 -41 27 -22 121 -64 127 -58 5 5 17 38 26 74 39 153 -11 301 -120
357 -51 27 -136 28 -191 4 -49 -22 -64 -18 -65 17 0 7 -9 30 -20 52 -11 22
-20 42 -20 45 0 3 128 5 285 5 l285 0 0 65 0 65 -560 0 -560 0 0 -65z"/>
<path d="M2307 2982 c-21 -23 -22 -52 -3 -78 12 -16 30 -20 124 -24 l110 -5
-315 -275 c-173 -151 -326 -284 -340 -294 -25 -19 -32 -19 -425 -1 l-400 18
-31 -24 c-50 -36 -746 -587 -804 -636 -41 -34 -53 -51 -53 -72 0 -36 32 -65
62 -58 13 4 212 156 442 338 l419 332 401 -18 c249 -11 408 -15 418 -9 8 5
175 148 369 318 l354 309 5 -122 c4 -106 8 -125 24 -137 27 -19 52 -18 76 6
19 19 20 33 20 215 0 182 -1 196 -20 215 -19 19 -33 20 -218 20 -180 0 -200
-2 -215 -18z"/>
<path d="M3819 2102 c-30 -27 -33 -35 -40 -118 -4 -49 -8 -89 -8 -90 -1 0 -20
-7 -43 -14 -24 -7 -59 -20 -78 -30 l-35 -18 -62 53 c-105 90 -134 85 -264 -42
-139 -135 -145 -169 -54 -276 l53 -62 -18 -35 c-10 -19 -23 -54 -30 -77 -7
-24 -14 -43 -14 -44 -1 0 -41 -4 -90 -8 -83 -7 -91 -10 -118 -40 l-28 -31 0
-154 c0 -139 2 -156 20 -179 25 -32 75 -47 153 -47 46 0 59 -4 63 -17 4 -10
19 -47 35 -81 l29 -64 -55 -61 c-61 -68 -75 -108 -52 -153 8 -16 60 -73 115
-127 89 -87 103 -97 136 -97 48 0 70 12 128 68 l47 45 59 -26 c33 -15 64 -27
70 -27 28 0 42 -33 42 -96 0 -131 32 -154 220 -154 195 0 220 17 228 155 l4
80 81 32 80 32 64 -54 c58 -49 69 -55 110 -55 45 0 48 2 155 108 106 107 108
110 108 155 0 41 -6 52 -55 110 l-54 64 32 80 32 81 80 4 c138 8 155 33 155
228 0 188 -23 220 -154 220 -63 0 -96 14 -96 42 0 6 -12 37 -27 70 l-26 59 45
47 c56 58 68 80 68 128 0 33 -10 47 -97 136 -54 55 -111 107 -127 115 -45 23
-85 9 -153 -52 l-61 -55 -64 29 c-34 16 -71 31 -80 35 -14 4 -18 17 -18 63 0
78 -15 128 -47 153 -23 18 -40 20 -179 20 l-154 0 -31 -28z m288 -132 c6 -96
14 -128 40 -154 14 -15 38 -29 52 -33 14 -3 61 -21 103 -41 98 -44 124 -40
202 30 l58 51 73 -73 74 -73 -56 -65 c-51 -60 -54 -68 -50 -106 7 -62 74 -217
108 -248 22 -21 39 -28 72 -28 23 0 59 -3 80 -6 l37 -7 0 -102 0 -102 -80 -5
c-104 -6 -126 -22 -161 -114 -14 -38 -33 -83 -42 -101 -32 -61 -18 -120 43
-178 56 -53 56 -55 -24 -134 l-73 -73 -63 56 c-53 48 -68 56 -102 56 -21 0
-53 -8 -71 -17 -18 -9 -63 -28 -101 -42 -92 -35 -108 -57 -114 -161 l-5 -80
-102 0 -102 0 -7 37 c-3 21 -6 57 -6 80 0 33 -7 50 -27 72 -32 34 -188 102
-249 108 -38 4 -46 0 -106 -50 l-65 -56 -73 74 -73 73 51 58 c71 79 73 99 23
216 -23 52 -41 100 -41 105 0 5 -13 22 -29 37 -26 25 -40 29 -113 35 l-83 6
-3 101 -3 101 47 7 c26 3 64 6 85 6 65 0 89 34 167 235 21 55 11 84 -48 150
-28 30 -50 58 -50 62 0 11 133 143 144 143 5 0 33 -22 61 -50 63 -59 95 -69
150 -48 201 78 235 102 235 167 0 21 3 59 6 85 l7 47 101 -3 101 -3 2 -45z"/>
<path d="M3861 1614 c-83 -22 -150 -63 -221 -134 -106 -107 -150 -212 -150
-365 0 -196 109 -374 282 -458 160 -77 302 -77 464 3 171 83 284 268 284 461
0 223 -158 428 -379 493 -68 20 -207 20 -280 0z m283 -125 c114 -43 199 -133
237 -252 60 -187 -28 -390 -209 -479 -155 -76 -362 -33 -472 99 -75 92 -109
212 -90 321 43 251 300 400 534 311z"/>
<path d="M1969 1864 c-12 -14 -14 -155 -17 -831 l-2 -813 -85 0 -85 0 0 610 0
611 -25 24 -24 25 -268 0 c-227 0 -272 -2 -291 -16 l-22 -15 0 -620 0 -619
-90 0 -90 0 0 450 c0 437 -1 451 -20 470 -19 19 -33 20 -298 20 -258 0 -280
-1 -295 -18 -15 -17 -17 -64 -17 -470 l0 -452 -100 0 c-87 0 -103 -3 -120 -20
-25 -25 -25 -55 0 -80 20 -20 33 -20 1338 -20 1452 0 1362 -4 1362 60 0 47
-30 60 -137 60 l-93 0 0 803 c0 626 -3 807 -13 827 l-13 25 -290 3 c-262 2
-293 1 -305 -14z m499 -871 l2 -773 -200 0 -200 0 0 768 c0 423 3 772 7 776 4
3 93 5 197 4 l191 -3 3 -772z m-808 -198 l0 -575 -200 0 -200 0 0 568 c0 313
3 572 7 575 3 4 93 7 200 7 l193 0 0 -575z m-810 -165 l0 -410 -195 0 -195 0
0 410 0 410 195 0 195 0 0 -410z"/>
</g>
</svg>
