<?xml version="1.0" standalone="no"?>
<!DOCTYPE svg PUBLIC "-//W3C//DTD SVG 20010904//EN"
 "http://www.w3.org/TR/2001/REC-SVG-20010904/DTD/svg10.dtd">
<svg version="1.0" xmlns="http://www.w3.org/2000/svg"
 width="512.000000pt" height="512.000000pt" viewBox="0 0 512.000000 512.000000"
 preserveAspectRatio="xMidYMid meet">

<g transform="translate(0.000000,512.000000) scale(0.100000,-0.100000)"
fill="#000000" stroke="none">
<path d="M3135 4785 c-305 -48 -582 -212 -766 -454 -69 -92 -163 -286 -194
-401 -186 -709 310 -1413 1036 -1469 213 -17 413 21 604 113 624 301 851 1069
491 1661 -244 403 -713 623 -1171 550z m410 -230 c532 -135 847 -705 675
-1225 -102 -307 -347 -540 -666 -632 -107 -31 -370 -33 -479 -4 -348 94 -607
352 -701 701 -15 56 -19 103 -18 240 0 155 3 178 27 258 52 170 133 302 258
423 244 236 574 323 904 239z"/>
<path d="M2830 3910 l0 -60 141 0 c127 0 145 -2 180 -22 40 -22 79 -84 79
-124 -1 -64 -64 -133 -137 -149 -35 -7 -37 -4 -48 76 l-7 47 -75 -32 c-42 -17
-78 -37 -81 -44 -8 -21 26 -142 56 -202 31 -62 119 -162 173 -196 82 -51 210
-67 292 -35 26 10 27 13 27 84 l0 74 -73 -5 c-84 -5 -155 19 -203 69 l-28 29
30 0 c43 0 129 46 163 87 l28 34 22 -36 c20 -34 85 -74 122 -75 16 0 66 103
52 108 -36 12 -59 31 -61 50 -5 32 15 52 50 52 79 0 110 -119 63 -241 -6 -16
110 -85 119 -71 13 22 36 130 36 172 0 189 -156 309 -309 240 -24 -11 -44 -20
-46 -20 -1 0 -7 19 -14 42 -7 23 -20 52 -28 65 l-15 23 271 0 271 0 0 60 0 60
-525 0 -525 0 0 -60z"/>
<path d="M65 2551 c-11 -5 -29 -19 -40 -31 -20 -22 -20 -36 -20 -921 l0 -899
28 -27 27 -28 463 -3 c444 -2 463 -1 494 17 31 19 60 82 47 103 -11 17 18 6
103 -40 371 -200 755 -320 1183 -368 161 -18 509 -18 670 0 254 29 522 90 730
166 249 92 1126 454 1166 481 23 15 62 51 87 79 229 255 96 661 -242 736 -105
24 -158 15 -435 -71 -132 -42 -249 -78 -258 -81 -16 -5 -18 2 -18 59 0 156
-95 298 -249 371 l-66 31 -623 3 -623 3 -38 23 c-75 48 -198 105 -281 130
-173 53 -224 58 -677 63 l-423 5 0 47 c0 74 -17 120 -53 141 -30 19 -53 20
-482 19 -247 0 -459 -4 -470 -8z m785 -951 l0 -750 -320 0 -320 0 0 750 0 750
320 0 320 0 0 -750z m1120 516 c150 -29 238 -63 385 -150 l70 -41 635 -5 635
-5 38 -23 c148 -93 139 -292 -18 -380 -27 -15 -94 -18 -665 -22 -349 -3 -643
-9 -653 -14 -24 -11 -47 -58 -47 -95 0 -20 11 -42 29 -63 l29 -33 639 0 c753
0 716 -4 860 100 11 9 176 63 365 120 370 113 417 121 493 86 96 -43 157 -162
136 -263 -14 -62 -42 -110 -84 -142 -28 -21 -627 -268 -1047 -431 -172 -68
-340 -117 -505 -149 -225 -45 -298 -51 -590 -50 -239 0 -301 3 -424 22 -376
59 -740 189 -1091 389 l-85 49 -3 556 -2 557 27 4 c16 3 199 4 408 2 295 -3
399 -7 465 -19z"/>
<path d="M465 1247 c-25 -25 -35 -44 -35 -66 0 -98 101 -145 172 -82 28 25 33
36 33 75 0 58 -33 95 -93 103 -37 5 -45 2 -77 -30z"/>
</g>
</svg>
