<?xml version="1.0" standalone="no"?>
<!DOCTYPE svg PUBLIC "-//W3C//DTD SVG 20010904//EN"
 "http://www.w3.org/TR/2001/REC-SVG-20010904/DTD/svg10.dtd">
<svg version="1.0" xmlns="http://www.w3.org/2000/svg"
 width="512.000000pt" height="512.000000pt" viewBox="0 0 512.000000 512.000000"
 preserveAspectRatio="xMidYMid meet">

<g transform="translate(0.000000,512.000000) scale(0.100000,-0.100000)"
fill="#000000" stroke="none">
<path d="M3955 4800 l-510 -159 -293 0 -294 -1 -29 -29 c-24 -25 -29 -37 -29
-80 l0 -51 -91 0 c-87 0 -92 -1 -120 -29 l-29 -29 0 -182 0 -182 29 -29 c28
-28 33 -29 120 -29 l91 0 0 -40 0 -40 -240 0 -240 0 0 371 0 371 -29 29 -29
29 -822 0 -822 0 -29 -29 -29 -29 0 -371 0 -371 -88 0 c-120 0 -182 -20 -237
-75 -80 -79 -75 16 -75 -1445 0 -1461 -5 -1366 75 -1445 78 -79 27 -75 1077
-75 l928 0 0 -120 0 -120 -251 0 -251 0 -29 -29 -29 -29 0 -182 0 -182 29 -29
29 -29 822 0 822 0 29 29 29 29 0 182 0 182 -29 29 -29 29 -251 0 -251 0 0
120 0 120 928 0 c1050 0 999 -4 1077 75 80 79 75 -16 75 1445 0 1461 5 1366
-75 1445 -55 55 -117 75 -237 75 l-88 0 0 40 0 40 48 0 c185 0 305 143 257
306 -31 108 -129 174 -257 174 l-48 0 0 211 0 211 -29 29 c-16 16 -38 29 -48
28 -10 0 -247 -72 -528 -159z m445 -560 c0 -291 -3 -530 -7 -530 -5 0 -201 60
-438 134 l-430 133 0 263 0 263 430 133 c237 73 433 133 438 134 4 0 7 -238 7
-530z m-2240 -240 l0 -560 -720 0 -720 0 0 560 0 560 720 0 720 0 0 -560z
m1200 240 l0 -240 -200 0 -200 0 0 240 0 240 200 0 200 0 0 -240z m-560 0 l0
-80 -40 0 -40 0 0 80 0 80 40 0 40 0 0 -80z m1895 55 c16 -15 25 -36 25 -55 0
-51 -38 -80 -105 -80 l-55 0 0 80 0 80 55 0 c46 0 60 -4 80 -25z m-1510 -487
c-3 -18 -14 -96 -25 -173 -30 -210 -24 -195 -76 -195 l-44 0 0 200 0 200 75 0
76 0 -6 -32z m774 -129 c311 -95 530 -158 541 -154 44 14 60 52 60 146 l0 89
95 0 c88 0 98 -2 120 -25 l25 -24 0 -1176 0 -1175 -2240 0 -2240 0 0 1175 0
1176 25 24 c22 23 32 25 120 25 l95 0 0 -211 0 -211 29 -29 29 -29 822 0 822
0 29 29 29 29 0 211 0 211 280 0 280 0 0 -211 0 -211 29 -29 29 -29 142 0
c199 0 186 -18 229 300 19 135 36 248 38 253 14 24 124 -3 612 -154z m841
-2534 c0 -46 -4 -60 -25 -80 l-24 -25 -2191 0 -2191 0 -24 25 c-21 20 -25 34
-25 80 l0 55 2240 0 2240 0 0 -55z m-2080 -385 l0 -120 -160 0 -160 0 0 120 0
120 160 0 160 0 0 -120z m560 -360 l0 -80 -720 0 -720 0 0 80 0 80 720 0 720
0 0 -80z"/>
<path d="M1244 4308 c-12 -5 -27 -21 -33 -34 -15 -34 -15 -514 0 -547 11 -25
47 -47 74 -47 8 0 131 58 273 130 226 113 261 133 272 160 10 24 10 36 0 60
-11 27 -46 47 -272 160 -142 72 -266 130 -276 129 -9 0 -27 -5 -38 -11z m231
-250 c58 -29 105 -55 105 -58 0 -5 -205 -110 -215 -110 -3 0 -5 50 -5 110 0
61 2 110 5 110 3 0 52 -24 110 -52z"/>
<path d="M2909 3091 l-29 -29 0 -502 0 -502 29 -29 c28 -28 33 -29 120 -29
l91 0 0 -131 0 -131 29 -29 29 -29 702 0 702 0 29 29 29 29 0 502 0 502 -29
29 c-25 24 -37 29 -80 29 l-51 0 0 131 0 131 -29 29 -29 29 -742 0 -742 0 -29
-29z m1411 -211 l0 -80 -565 0 c-392 0 -571 -3 -588 -11 -44 -20 -47 -43 -47
-344 l0 -285 -40 0 -40 0 0 400 0 400 640 0 640 0 0 -80z m160 -640 l0 -400
-600 0 -600 0 0 400 0 400 600 0 600 0 0 -400z"/>
<path d="M3440 2400 l0 -80 80 0 80 0 0 80 0 80 -80 0 -80 0 0 -80z"/>
<path d="M3760 2400 l0 -80 280 0 280 0 0 80 0 80 -280 0 -280 0 0 -80z"/>
<path d="M3440 2080 l0 -80 160 0 160 0 0 80 0 80 -160 0 -160 0 0 -80z"/>
<path d="M3920 2080 l0 -80 200 0 200 0 0 80 0 80 -200 0 -200 0 0 -80z"/>
<path d="M509 2931 l-29 -29 0 -662 0 -662 29 -29 29 -29 1062 0 1062 0 29 29
29 29 0 662 0 662 -29 29 -29 29 -1062 0 -1062 0 -29 -29z m1836 -140 c-6 -5
-175 -110 -377 -234 l-367 -226 -368 226 c-202 124 -372 230 -377 234 -6 5
322 9 744 9 439 0 750 -4 745 -9z m-1228 -347 c362 -224 455 -277 483 -277 28
0 119 52 485 278 248 152 456 280 463 282 9 4 12 -104 12 -521 l0 -526 -960 0
-960 0 0 526 c0 447 2 525 14 521 8 -3 216 -130 463 -283z"/>
</g>
</svg>
