<?xml version="1.0" standalone="no"?>
<!DOCTYPE svg PUBLIC "-//W3C//DTD SVG 20010904//EN"
 "http://www.w3.org/TR/2001/REC-SVG-20010904/DTD/svg10.dtd">
<svg version="1.0" xmlns="http://www.w3.org/2000/svg"
 width="128.000000pt" height="128.000000pt" viewBox="0 0 128.000000 128.000000"
 preserveAspectRatio="xMidYMid meet">

<g transform="translate(0.000000,128.000000) scale(0.100000,-0.100000)"
fill="#000000" stroke="none">
<path d="M891 1126 c-9 -11 -11 -77 -9 -243 l3 -228 -70 2 c-38 1 -103 2 -142
2 -66 1 -73 3 -73 21 0 13 -7 20 -20 20 -16 0 -20 7 -20 30 l0 30 88 0 c55 0
92 4 100 12 13 13 18 301 6 332 -5 14 -38 16 -268 16 -190 0 -265 -3 -274 -12
-17 -17 -17 -319 0 -336 8 -8 45 -12 100 -12 l88 0 0 -29 c0 -21 -6 -32 -20
-36 -11 -3 -20 -13 -20 -21 0 -16 -3 -16 -188 -15 -121 0 -133 -1 -130 -17 3
-13 14 -17 45 -17 23 0 44 -3 47 -6 4 -3 7 -135 7 -293 0 -263 2 -287 17 -284
15 3 17 26 19 218 l1 215 301 3 301 2 2 -217 c2 -168 6 -217 16 -221 7 -2 16
5 19 17 5 20 11 21 143 21 132 0 138 -1 143 -21 3 -12 12 -19 19 -17 10 4 14
65 16 291 l2 286 48 3 c34 2 47 7 47 18 0 12 -13 15 -60 15 l-60 0 3 219 c2
120 1 230 -2 242 -6 23 -10 24 -110 24 -78 0 -107 -4 -115 -14z m189 -86 l0
-60 -80 0 -80 0 0 60 0 60 80 0 80 0 0 -60z m-360 -100 l0 -140 -240 0 -240 0
0 140 0 140 240 0 240 0 0 -140z m360 -20 c0 -18 -7 -20 -80 -20 -73 0 -80 2
-80 20 0 18 7 20 80 20 73 0 80 -2 80 -20z m0 -140 l0 -80 -80 0 -80 0 0 80 0
80 80 0 80 0 0 -80z m-560 -50 c0 -28 -2 -30 -40 -30 -38 0 -40 2 -40 30 0 28
2 30 40 30 38 0 40 -2 40 -30z m218 -110 l42 0 0 -50 0 -50 -300 0 -300 0 0
50 0 49 93 3 c50 2 166 2 257 1 91 -1 184 -3 208 -3z m362 -70 l0 -70 -140 0
-140 0 0 70 0 70 140 0 140 0 0 -70z m3 -152 c3 -23 3 -54 0 -69 -5 -28 -6
-28 -102 -31 -53 -2 -115 -2 -138 0 -47 3 -52 14 -44 100 l3 42 138 0 137 0 6
-42z m-3 -208 l0 -70 -140 0 -140 0 0 70 0 70 140 0 140 0 0 -70z"/>
<path d="M272 1048 c-7 -7 -12 -29 -12 -51 0 -31 3 -38 18 -35 10 2 18 14 20
31 3 23 8 27 33 27 22 0 29 5 29 20 0 16 -7 20 -38 20 -21 0 -43 -5 -50 -12z"/>
<path d="M980 740 c0 -13 7 -20 20 -20 13 0 20 7 20 20 0 13 -7 20 -20 20 -13
0 -20 -7 -20 -20z"/>
<path d="M445 590 c-11 -18 10 -32 41 -28 40 4 38 32 -3 36 -17 2 -34 -2 -38
-8z"/>
<path d="M920 580 c0 -17 7 -20 40 -20 33 0 40 3 40 20 0 17 -7 20 -40 20 -33
0 -40 -3 -40 -20z"/>
<path d="M924 409 c-10 -17 11 -31 42 -27 18 2 30 10 32 21 3 13 -4 17 -32 17
-19 0 -38 -5 -42 -11z"/>
<path d="M920 220 c0 -17 7 -20 40 -20 33 0 40 3 40 20 0 17 -7 20 -40 20 -33
0 -40 -3 -40 -20z"/>
</g>
</svg>
