<?xml version="1.0" standalone="no"?>
<!DOCTYPE svg PUBLIC "-//W3C//DTD SVG 20010904//EN"
 "http://www.w3.org/TR/2001/REC-SVG-20010904/DTD/svg10.dtd">
<svg version="1.0" xmlns="http://www.w3.org/2000/svg"
 width="512.000000pt" height="512.000000pt" viewBox="0 0 512.000000 512.000000"
 preserveAspectRatio="xMidYMid meet">

<g transform="translate(0.000000,512.000000) scale(0.100000,-0.100000)"
fill="#000000" stroke="none">
<path d="M3355 5113 c-422 -57 -771 -372 -878 -793 -22 -83 -22 -100 -22 -760
0 -736 -3 -700 60 -805 19 -32 35 -59 35 -60 0 -1 -28 -8 -62 -15 -34 -6 -90
-22 -125 -35 l-62 -22 -3 417 -3 416 -27 41 c-16 24 -44 49 -70 62 -44 21 -46
21 -1048 21 -1002 0 -1004 0 -1048 -21 -26 -13 -54 -38 -70 -62 l-27 -41 -3
-346 -3 -346 25 -23 c22 -21 28 -22 60 -11 20 6 41 20 46 30 6 11 10 146 10
339 0 306 1 321 19 331 13 7 342 10 995 10 873 0 976 -2 990 -16 14 -14 16
-87 16 -653 0 -482 -3 -640 -12 -649 -9 -9 -105 -12 -370 -12 l-358 0 0 272
c0 256 -1 274 -21 316 -13 26 -38 54 -62 70 -39 26 -45 27 -187 27 -142 0
-148 -1 -187 -27 -24 -16 -49 -44 -62 -70 -20 -42 -21 -60 -21 -316 l0 -272
-358 0 c-265 0 -361 3 -370 12 -8 8 -12 61 -12 173 0 177 -5 194 -61 214 -27
9 -33 8 -55 -14 l-25 -25 3 -194 3 -194 31 -39 c65 -80 54 -78 467 -81 l367
-3 0 -124 0 -125 -58 0 c-120 0 -218 -54 -261 -143 -17 -36 -21 -62 -21 -150
l0 -107 -187 0 c-240 -1 -279 -13 -324 -102 -17 -33 -19 -61 -19 -252 0 -228
4 -252 48 -300 40 -42 82 -56 172 -56 l80 0 0 -278 c0 -278 0 -279 23 -300 33
-31 80 -29 106 4 20 26 21 39 21 300 l0 274 1715 0 1716 0 24 25 c30 29 32 64
6 96 l-19 24 -1869 5 -1868 5 0 200 0 200 2405 0 2405 0 0 -200 0 -200 -395
-5 c-217 -3 -396 -7 -397 -8 -1 -1 -9 -9 -17 -18 -20 -19 -21 -74 -2 -100 13
-18 30 -19 265 -22 l251 -3 0 -273 c0 -261 1 -274 21 -300 27 -34 77 -36 107
-3 22 23 22 30 22 300 l0 277 80 0 c90 0 132 14 172 56 44 48 48 72 48 300 0
195 -2 218 -20 254 -21 41 -82 90 -112 90 -17 0 -18 26 -18 453 0 504 -1 514
-67 640 -76 145 -213 245 -388 283 -44 10 -81 19 -83 19 -1 1 13 26 33 55 71
106 70 90 70 810 0 628 -1 647 -22 738 -100 422 -425 734 -842 807 -77 14
-243 18 -316 8z m342 -163 c168 -40 317 -125 434 -247 118 -123 184 -239 232
-411 20 -74 21 -98 25 -697 2 -434 0 -635 -8 -671 -14 -67 -59 -137 -107 -168
l-38 -25 -150 34 c-176 40 -195 53 -195 134 0 46 2 48 62 96 113 90 200 220
249 370 21 65 23 91 27 378 3 229 1 316 -8 338 -19 44 -56 69 -105 69 -133 0
-239 45 -335 141 -100 100 -128 102 -238 17 -83 -64 -203 -121 -307 -148 -67
-18 -105 -21 -235 -18 -171 3 -195 -4 -226 -63 -22 -43 -20 -586 2 -678 29
-120 95 -240 183 -333 43 -46 91 -90 105 -97 23 -13 26 -20 26 -72 0 -88 -8
-94 -189 -134 l-154 -34 -34 23 c-42 29 -87 89 -101 136 -7 22 -13 257 -17
630 -6 509 -5 610 9 696 53 348 306 638 631 722 110 29 114 29 255 31 94 1
146 -4 207 -19z m129 -877 c68 -36 160 -63 216 -63 l38 0 0 -257 c0 -287 -8
-340 -63 -452 -45 -93 -159 -207 -254 -255 -236 -118 -504 -76 -687 108 -51
50 -82 93 -109 147 -58 117 -67 178 -67 454 l0 240 148 1 c115 1 164 6 224 22
116 31 217 77 304 137 l78 53 56 -51 c31 -29 83 -66 116 -84z m-491 -1229 c83
-19 254 -17 337 5 l68 17 14 -50 c20 -67 64 -119 128 -149 l52 -25 -78 -51
c-144 -94 -325 -130 -491 -97 -87 17 -218 76 -277 123 l-38 30 45 17 c72 28
145 125 145 195 0 8 6 11 18 6 9 -3 44 -13 77 -21z m-2066 -198 c8 -9 10 -143
9 -477 l-3 -464 -125 0 -125 0 -3 464 c-1 334 1 468 9 477 8 10 40 14 119 14
79 0 111 -4 119 -14z m1683 -107 c176 -152 413 -226 634 -199 173 21 336 96
458 211 35 32 70 59 77 59 8 0 108 -21 224 -46 238 -52 297 -77 371 -156 25
-27 57 -74 72 -106 l27 -57 3 -337 3 -338 -226 0 -225 0 0 54 c0 45 -4 58 -22
70 -34 24 -73 20 -97 -10 -19 -25 -21 -40 -21 -205 l0 -179 -737 2 -738 3 -5
188 c-5 172 -7 190 -24 203 -28 20 -73 17 -96 -6 -15 -15 -20 -33 -20 -70 l0
-50 -225 0 -225 0 0 205 c0 173 2 205 15 205 20 0 83 57 103 94 13 24 17 67
20 196 2 97 8 170 15 178 31 38 106 66 309 112 117 27 221 49 231 49 9 1 54
-31 99 -70z m-942 -904 l0 -325 -120 0 -120 0 0 107 c0 87 -4 114 -21 149 -44
92 -139 144 -261 144 l-58 0 0 125 0 125 290 0 290 0 0 -325z m-445 -89 c47
-20 55 -41 55 -150 l0 -96 -470 0 -470 0 0 96 c0 171 -23 163 463 164 312 0
394 -3 422 -14z m1043 -183 l-3 -58 -220 0 -220 0 -3 58 -3 57 226 0 226 0 -3
-57z m2212 -3 l0 -60 -68 0 c-38 0 -137 3 -220 7 l-152 6 0 54 0 53 220 0 220
0 0 -60z"/>
<path d="M3120 3850 c-17 -17 -20 -33 -20 -113 0 -85 2 -96 23 -115 30 -28 68
-28 95 1 19 20 22 35 22 115 0 104 -15 132 -70 132 -17 0 -39 -9 -50 -20z"/>
<path d="M3761 3844 c-18 -22 -21 -41 -21 -111 0 -76 2 -86 25 -108 29 -30 64
-32 96 -6 22 18 24 26 24 116 0 90 -2 98 -24 116 -34 27 -75 24 -100 -7z"/>
<path d="M3328 3354 c-59 -32 -45 -103 27 -135 95 -42 240 -32 308 22 46 36
33 102 -25 122 -9 3 -44 -4 -77 -15 -59 -20 -64 -20 -119 -5 -31 9 -64 18 -72
21 -8 3 -27 -1 -42 -10z"/>
</g>
</svg>
