<?xml version="1.0" standalone="no"?>
<!DOCTYPE svg PUBLIC "-//W3C//DTD SVG 20010904//EN"
 "http://www.w3.org/TR/2001/REC-SVG-20010904/DTD/svg10.dtd">
<svg version="1.0" xmlns="http://www.w3.org/2000/svg"
 width="512.000000pt" height="512.000000pt" viewBox="0 0 512.000000 512.000000"
 preserveAspectRatio="xMidYMid meet">

<g transform="translate(0.000000,512.000000) scale(0.100000,-0.100000)"
fill="#000000" stroke="none">
<path d="M1520 4775 c0 -167 -4 -265 -10 -265 -5 0 -41 5 -80 12 l-70 12 0
173 0 173 -80 0 -80 0 0 -155 c0 -117 -3 -155 -12 -155 -7 0 -107 18 -223 40
-116 22 -218 40 -227 40 -17 0 -18 -44 -18 -794 l0 -793 -69 -12 c-39 -6 -75
-11 -80 -11 -8 0 -11 66 -11 200 l0 200 -80 0 -80 0 0 -218 0 -218 -160 -29
-160 -29 0 -1433 0 -1433 2063 3 2062 2 85 23 c103 28 251 97 334 156 139 99
272 269 336 430 34 86 80 251 80 287 0 54 -31 118 -77 158 l-44 40 35 88 c147
370 99 765 -131 1086 -19 27 -194 235 -389 462 l-354 413 0 129 0 128 55 110
c62 124 93 229 102 356 l6 85 -39 31 c-128 101 -332 157 -616 170 l-148 6 0
-80 0 -80 -67 -17 c-108 -26 -180 -81 -239 -181 l-25 -43 86 -171 85 -171 0
-136 0 -136 -77 -90 -78 -91 -3 190 -2 190 -160 29 -160 29 0 377 0 378 -80 0
-80 0 0 -360 c0 -229 -4 -360 -10 -360 -5 0 -41 5 -80 12 l-70 12 0 188 0 188
-80 0 -80 0 0 -170 c0 -105 -4 -170 -10 -170 -5 0 -41 5 -80 12 l-70 12 0 391
0 391 -240 45 -240 44 0 282 0 283 -80 0 -80 0 0 -265z m-72 -417 l552 -103 0
-307 c0 -245 -3 -308 -13 -308 -7 0 -71 11 -142 25 -72 14 -138 25 -147 25
-17 0 -18 -65 -18 -1221 l0 -1221 -40 6 c-22 3 -58 9 -80 12 l-40 6 0 969 c0
808 -2 969 -14 969 -7 0 -145 -25 -306 -55 -161 -30 -299 -55 -306 -55 -12 0
-14 115 -14 680 0 374 3 680 8 680 4 1 256 -45 560 -102z m2369 -303 c82 -16
202 -56 239 -80 24 -15 25 -20 19 -68 -10 -75 -50 -194 -85 -254 l-30 -53
-115 0 -114 0 -15 28 c-43 85 -92 261 -111 406 l-7 48 74 -7 c40 -4 105 -13
145 -20z m-351 -162 c15 -71 45 -177 64 -225 11 -29 20 -56 20 -60 0 -5 -31
-8 -70 -8 l-70 0 -59 119 -60 118 27 26 c31 30 87 56 119 57 17 0 24 -7 29
-27z m-1058 -495 l552 -103 0 -220 0 -220 -92 -107 -91 -108 -69 0 -68 0 0
-79 0 -79 -49 -59 c-57 -69 -119 -162 -145 -221 -19 -42 -19 -42 -73 -42 l-53
0 0 -80 c0 -75 1 -80 21 -80 18 0 20 -4 15 -27 -17 -81 -36 -226 -36 -283 0
-146 47 -355 106 -472 13 -26 24 -51 24 -56 0 -4 -134 9 -297 29 -164 21 -301
38 -305 39 -5 0 -8 511 -8 1135 0 624 3 1135 8 1135 4 1 256 -45 560 -102z
m1512 -38 l0 -80 -240 0 -240 0 0 80 0 80 240 0 240 0 0 -80z m403 -658 c196
-230 374 -442 394 -472 169 -251 208 -582 103 -871 -44 -122 -69 -160 -121
-189 -70 -39 -78 -47 -191 -180 -108 -128 -153 -167 -245 -214 -99 -50 -151
-56 -485 -56 -265 0 -309 2 -322 16 -9 8 -16 24 -16 34 0 17 24 50 37 50 36 0
258 46 288 59 22 10 59 38 81 63 118 128 87 313 -66 394 -29 16 -63 19 -210
22 -96 2 -215 -1 -266 -7 -188 -22 -369 -84 -529 -181 -80 -48 -88 -50 -108
-37 -32 21 -85 115 -124 217 -109 291 -71 626 100 880 20 30 198 242 394 472
l358 418 285 0 285 0 358 -418z m-2963 -548 l0 -866 -37 6 c-21 3 -256 33
-523 66 -267 33 -502 63 -523 66 l-37 6 0 691 0 692 538 101 c295 56 547 102
560 103 l22 1 0 -866z m-160 -1004 c487 -60 902 -112 923 -116 l37 -6 0 -394
0 -394 -960 0 -960 0 0 516 0 516 38 -6 c20 -3 435 -56 922 -116z m2535 25
c35 -34 34 -85 -2 -125 -26 -29 -39 -33 -167 -55 -159 -28 -198 -45 -243 -103
-62 -81 -53 -192 21 -267 62 -62 84 -65 422 -65 316 0 387 7 497 45 141 49
230 119 378 296 93 112 127 139 175 139 33 0 64 -26 64 -52 0 -41 -54 -208
-95 -293 -78 -163 -206 -290 -370 -370 -170 -83 -123 -78 -913 -82 l-702 -4 2
383 3 383 62 37 c116 70 276 127 411 147 31 5 142 9 245 10 187 1 188 1 212
-24z m-1255 -185 c85 -11 156 -20 158 -20 1 0 2 -164 2 -365 l0 -365 -160 0
-160 0 0 385 c0 212 1 385 3 385 1 0 72 -9 157 -20z"/>
<path d="M1040 4000 l0 -80 80 0 80 0 0 80 0 80 -80 0 -80 0 0 -80z"/>
<path d="M1360 4000 l0 -80 80 0 80 0 0 80 0 80 -80 0 -80 0 0 -80z"/>
<path d="M1680 4000 l0 -80 80 0 80 0 0 80 0 80 -80 0 -80 0 0 -80z"/>
<path d="M1040 3520 l0 -80 80 0 80 0 0 80 0 80 -80 0 -80 0 0 -80z"/>
<path d="M1360 3520 l0 -80 80 0 80 0 0 80 0 80 -80 0 -80 0 0 -80z"/>
<path d="M2000 3040 l0 -80 80 0 80 0 0 80 0 80 -80 0 -80 0 0 -80z"/>
<path d="M2320 3040 l0 -80 80 0 80 0 0 80 0 80 -80 0 -80 0 0 -80z"/>
<path d="M2640 3040 l0 -80 80 0 80 0 0 80 0 80 -80 0 -80 0 0 -80z"/>
<path d="M2000 2560 l0 -80 80 0 80 0 0 80 0 80 -80 0 -80 0 0 -80z"/>
<path d="M2320 2560 l0 -80 80 0 80 0 0 80 0 80 -80 0 -80 0 0 -80z"/>
<path d="M2000 2080 l0 -80 80 0 80 0 0 80 0 80 -80 0 -80 0 0 -80z"/>
<path d="M2000 1600 l0 -80 80 0 80 0 0 80 0 80 -80 0 -80 0 0 -80z"/>
<path d="M3278 2047 c-111 -32 -171 -121 -171 -256 0 -128 55 -219 150 -252
56 -20 179 -18 235 4 56 22 110 79 126 136 7 21 12 74 12 117 0 123 -45 202
-134 239 -53 22 -160 28 -218 12z m151 -123 c66 -46 69 -213 4 -264 -31 -24
-89 -26 -122 -4 -32 23 -51 73 -51 134 0 95 41 150 110 150 20 0 46 -7 59 -16z"/>
<path d="M2660 1790 l0 -260 205 0 205 0 0 65 0 65 -125 0 -125 0 0 195 0 195
-80 0 -80 0 0 -260z"/>
<path d="M3836 2033 c-4 -10 -43 -115 -86 -233 -43 -118 -83 -228 -89 -243
l-11 -28 82 3 81 3 11 40 12 40 92 3 92 3 12 -46 12 -45 83 0 82 0 -35 98
c-20 53 -62 169 -94 257 l-58 160 -90 3 c-78 2 -90 0 -96 -15z m127 -205 l26
-78 -56 0 c-48 0 -55 2 -50 18 2 9 13 47 23 84 10 38 21 65 25 60 3 -4 18 -42
32 -84z"/>
<path d="M4270 1790 l0 -260 70 0 69 0 3 143 3 142 95 -142 95 -142 73 -1 72
0 0 260 0 260 -70 0 -69 0 -3 -142 -3 -143 -98 143 -98 142 -69 0 -70 0 0
-260z"/>
<path d="M400 2560 l0 -80 80 0 80 0 0 80 0 80 -80 0 -80 0 0 -80z"/>
<path d="M720 2560 l0 -80 80 0 80 0 0 80 0 80 -80 0 -80 0 0 -80z"/>
<path d="M1040 2560 l0 -80 80 0 80 0 0 80 0 80 -80 0 -80 0 0 -80z"/>
<path d="M400 2080 l0 -80 80 0 80 0 0 80 0 80 -80 0 -80 0 0 -80z"/>
<path d="M720 2080 l0 -80 80 0 80 0 0 80 0 80 -80 0 -80 0 0 -80z"/>
<path d="M1040 2080 l0 -80 80 0 80 0 0 80 0 80 -80 0 -80 0 0 -80z"/>
<path d="M400 1600 l0 -80 80 0 80 0 0 80 0 80 -80 0 -80 0 0 -80z"/>
<path d="M720 1600 l0 -80 80 0 80 0 0 80 0 80 -80 0 -80 0 0 -80z"/>
<path d="M1040 1600 l0 -80 80 0 80 0 0 80 0 80 -80 0 -80 0 0 -80z"/>
</g>
</svg>
