<?xml version="1.0" standalone="no"?>
<!DOCTYPE svg PUBLIC "-//W3C//DTD SVG 20010904//EN"
 "http://www.w3.org/TR/2001/REC-SVG-20010904/DTD/svg10.dtd">
<svg version="1.0" xmlns="http://www.w3.org/2000/svg"
 width="1096.000000pt" height="1602.000000pt" viewBox="0 0 1096.000000 1602.000000"
 preserveAspectRatio="xMidYMid meet">

<g transform="translate(0.000000,1602.000000) scale(0.100000,-0.100000)"
fill="#000000" stroke="none">
<path d="M967 14796 c-60 -22 -103 -62 -133 -122 l-28 -57 13 -188 c15 -237
70 -731 111 -999 157 -1026 418 -1809 797 -2387 598 -914 1511 -1235 2553
-899 105 33 288 104 340 131 l28 14 37 -82 c158 -346 309 -797 406 -1217 32
-140 92 -464 104 -561 l7 -57 -68 -6 c-38 -3 -114 -8 -169 -11 -159 -10 -436
-44 -615 -76 -418 -76 -744 -176 -1045 -323 -351 -171 -593 -391 -699 -633
-54 -124 -56 -150 -56 -763 l0 -565 -123 -62 c-311 -158 -533 -356 -636 -568
-79 -160 -75 -121 -79 -861 -3 -727 -3 -728 57 -879 101 -252 352 -492 680
-652 l120 -58 3 -460 c4 -443 5 -463 26 -535 89 -295 339 -556 708 -739 532
-263 1305 -385 2339 -368 394 7 517 15 825 53 727 89 1267 293 1590 601 116
110 179 193 240 318 92 187 91 176 88 933 l-3 657 -24 70 c-94 281 -319 505
-699 698 l-132 68 0 362 0 363 78 38 c330 163 556 372 677 628 82 174 80 148
80 878 0 584 -2 652 -18 721 -36 152 -122 296 -257 429 -102 101 -206 177
-363 265 -298 169 -746 314 -1204 391 -90 15 -163 31 -163 36 0 24 480 953
514 995 1 1 42 -9 91 -23 623 -172 1225 -102 1666 192 595 398 936 1154 1035
2295 25 293 29 848 10 1214 -25 452 -29 489 -63 543 -16 26 -48 60 -72 77 -40
28 -49 30 -129 30 -72 -1 -117 -9 -262 -49 -807 -221 -1503 -521 -2045 -881
-462 -308 -787 -650 -968 -1018 -124 -254 -177 -477 -177 -754 0 -413 143
-825 440 -1268 l70 -105 -130 -242 c-72 -134 -212 -406 -311 -606 l-181 -362
-81 6 c-45 4 -83 7 -84 8 -1 1 -13 78 -28 171 -104 681 -290 1308 -566 1916
l-39 85 74 150 c181 367 287 690 333 1019 22 154 22 440 0 580 -91 588 -412
1068 -985 1474 -320 226 -790 453 -1272 614 -590 197 -1358 354 -2035 417
-137 13 -151 12 -198 -4z m580 -516 c1193 -166 2224 -536 2796 -1002 88 -72
249 -231 316 -313 173 -209 298 -485 331 -730 16 -122 14 -357 -4 -485 -19
-133 -65 -313 -118 -460 -44 -124 -84 -220 -92 -220 -2 0 -32 46 -67 103 -157
255 -397 596 -548 777 l-63 75 6 250 c4 138 11 362 17 498 11 269 9 292 -39
349 -63 74 -182 79 -256 10 -51 -48 -54 -68 -67 -393 -6 -167 -13 -306 -15
-308 -3 -3 -84 74 -182 170 -97 96 -215 209 -261 250 l-84 76 12 290 c14 316
12 333 -42 392 -78 84 -237 61 -285 -41 -16 -34 -22 -74 -27 -195 -4 -92 -11
-153 -17 -153 -6 0 -56 33 -112 73 -331 240 -644 426 -734 435 -97 9 -188 -42
-234 -131 -42 -83 -17 -212 52 -270 16 -14 59 -41 97 -62 177 -98 513 -318
513 -336 0 -5 -44 -9 -98 -9 -82 0 -105 -4 -142 -22 -130 -66 -132 -249 -4
-314 39 -19 64 -21 389 -27 l347 -7 77 -67 c94 -84 452 -435 448 -440 -2 -2
-181 -4 -399 -6 l-394 -2 -37 -25 c-37 -26 -70 -75 -81 -123 -16 -67 39 -162
111 -193 26 -11 134 -14 560 -14 290 0 538 -3 551 -6 25 -7 238 -283 369 -479
135 -202 293 -462 293 -481 0 -5 -19 -17 -43 -27 -188 -83 -432 -155 -614
-182 -133 -19 -408 -20 -528 0 -547 88 -988 469 -1320 1140 -277 560 -466
1284 -579 2220 -49 411 -51 445 -29 445 10 0 114 -13 230 -30z m7659 -1287
c14 -201 11 -936 -4 -1113 -44 -522 -118 -884 -248 -1214 -218 -553 -544 -860
-1025 -968 -90 -20 -131 -23 -304 -22 -166 0 -219 4 -315 22 -151 30 -190 41
-190 52 0 21 426 706 453 728 6 6 66 17 132 26 66 9 179 25 250 36 72 10 202
29 290 40 88 12 176 26 195 32 157 45 167 276 14 334 -45 17 -51 17 -257 -10
-117 -15 -238 -32 -271 -37 -32 -6 -60 -8 -63 -5 -5 5 84 129 234 326 l88 115
55 7 c30 4 129 16 220 28 218 27 243 34 284 81 110 121 8 315 -156 296 -26 -3
-48 -2 -48 2 0 18 259 288 363 379 124 109 151 152 150 243 -2 134 -100 229
-235 229 -76 -1 -114 -22 -244 -140 -96 -87 -373 -374 -453 -470 -28 -34 -35
-21 -50 98 -15 109 -26 138 -71 176 -62 51 -146 57 -211 13 -89 -60 -95 -106
-50 -394 16 -103 32 -214 36 -245 l7 -56 -129 -174 c-72 -95 -138 -185 -148
-200 -9 -16 -20 -28 -24 -28 -4 0 -24 106 -45 236 -26 156 -46 250 -60 278
-53 104 -196 125 -281 41 -63 -64 -64 -78 -11 -392 26 -153 59 -351 74 -439
l25 -161 -125 -194 c-69 -107 -167 -264 -218 -349 -51 -85 -97 -159 -101 -164
-15 -17 -128 189 -194 355 -89 221 -121 393 -112 609 8 191 40 313 128 492
266 535 955 1029 1969 1411 190 71 619 212 661 216 4 1 11 -56 15 -126z
m-3952 -5139 c3 -26 6 -70 6 -99 l0 -52 -107 -7 c-270 -18 -470 -43 -691 -86
-217 -43 -310 -74 -344 -113 -48 -54 -31 -149 32 -182 37 -19 64 -19 126 0 53
16 364 81 429 89 159 21 216 27 334 36 74 5 157 10 184 10 l49 0 -6 -217 c-4
-120 -9 -235 -12 -255 -7 -47 -17 -48 -122 -12 -107 35 -145 26 -182 -45 -16
-31 -5 -83 25 -113 77 -78 445 -129 675 -94 139 21 274 63 306 94 44 45 44
103 -1 147 -36 37 -70 41 -139 17 -34 -11 -62 -17 -64 -13 -3 9 183 450 195
462 17 16 392 -42 691 -107 81 -18 83 -18 119 1 41 22 73 68 73 103 0 34 -29
91 -53 103 -30 17 -181 56 -277 73 -47 8 -132 24 -190 35 -58 11 -138 23 -177
26 -49 5 -73 12 -73 20 0 7 18 52 40 99 45 100 32 95 203 71 665 -93 1243
-318 1478 -574 142 -154 143 -251 3 -437 -97 -129 -237 -233 -455 -338 -429
-207 -1072 -316 -1869 -316 -968 0 -1708 159 -2122 457 -44 32 -116 96 -160
142 -135 145 -182 276 -134 371 139 270 636 517 1303 649 232 46 654 97 834
100 l66 1 7 -46z m-2129 -1642 c189 -127 532 -270 821 -341 321 -79 685 -131
1050 -148 201 -10 712 -10 911 -1 790 38 1451 208 1863 480 52 35 101 67 108
71 11 7 13 -30 10 -210 l-3 -218 -35 -65 c-63 -117 -191 -237 -351 -328 -361
-205 -850 -317 -1584 -362 -155 -10 -533 -12 -487 -3 26 5 28 9 36 75 l6 48
-58 -6 c-62 -7 -118 12 -154 53 -17 18 -16 19 27 31 26 7 58 26 80 48 34 34
37 35 50 17 8 -10 15 -21 15 -26 0 -10 61 -47 77 -47 11 0 43 59 43 79 0 3
-10 11 -22 16 -15 7 -23 19 -23 35 0 34 45 40 75 10 18 -18 21 -31 18 -78 -2
-32 -7 -64 -11 -72 -5 -11 5 -22 35 -38 39 -21 44 -22 55 -6 17 24 27 97 19
151 -8 63 -41 112 -90 134 -50 23 -85 24 -133 4 -45 -19 -43 -19 -43 8 0 12
-7 35 -15 51 -8 15 -15 30 -15 32 0 2 90 4 200 4 l200 0 0 45 0 45 -390 0
-390 0 0 -45 0 -45 111 0 111 0 34 -34 c29 -29 34 -41 34 -81 0 -38 -5 -52
-29 -75 -34 -35 -79 -49 -92 -29 -5 8 -9 29 -9 48 0 36 5 36 -78 3 -43 -17
-44 -18 -39 -58 5 -51 47 -143 87 -194 33 -42 81 -75 139 -97 32 -12 16 -13
-145 -8 -969 30 -1674 225 -1981 548 -44 47 -83 100 -104 143 l-34 68 -3 219
c-3 178 -1 217 10 211 7 -4 49 -32 93 -62z m-412 -769 c215 -307 604 -531
1165 -672 730 -183 1950 -215 2795 -73 92 16 167 25 167 20 0 -13 -109 -95
-197 -148 -326 -196 -750 -308 -1413 -372 -184 -18 -1045 -18 -1230 0 -806 77
-1333 252 -1628 540 -120 118 -200 264 -187 343 14 80 94 186 211 280 58 46
239 159 255 159 4 0 32 -35 62 -77z m-438 -1227 c385 -256 916 -412 1640 -481
229 -22 905 -31 1173 -16 837 48 1469 218 1890 508 35 23 67 43 72 43 16 0 12
-346 -4 -408 -50 -188 -279 -388 -588 -515 -266 -110 -621 -191 -1008 -231
-80 -8 -167 -17 -195 -20 -27 -3 -171 -9 -318 -12 -228 -6 -267 -5 -263 7 2 8
7 35 10 61 l6 48 -58 -6 c-62 -7 -118 12 -154 53 -17 18 -16 19 27 31 26 7 58
26 80 48 34 34 37 35 50 17 8 -10 15 -21 15 -26 0 -10 61 -47 77 -47 11 0 43
59 43 79 0 3 -10 11 -22 16 -15 7 -23 19 -23 35 0 34 45 40 75 10 18 -18 21
-31 18 -78 -2 -32 -7 -64 -11 -72 -5 -11 5 -22 35 -38 39 -21 44 -22 55 -6 17
24 27 97 19 151 -8 63 -41 112 -90 134 -50 23 -85 24 -133 4 -45 -19 -43 -19
-43 8 0 12 -7 35 -15 51 -8 15 -15 30 -15 32 0 2 90 4 200 4 l200 0 0 45 0 45
-390 0 -390 0 0 -45 0 -45 111 0 111 0 34 -34 c29 -29 34 -41 34 -81 0 -38 -5
-52 -29 -75 -34 -35 -79 -49 -92 -29 -5 8 -9 29 -9 48 0 36 5 36 -78 3 -43
-17 -44 -18 -39 -58 5 -51 47 -143 88 -195 17 -22 55 -54 83 -70 l51 -31 -240
6 c-132 4 -256 8 -275 11 -19 2 -91 9 -160 15 -573 52 -1073 196 -1357 392
-102 71 -213 190 -254 274 l-34 68 -3 213 c-2 117 0 213 4 213 4 0 44 -24 89
-54z m5285 -552 c199 -116 337 -264 356 -381 8 -52 -31 -148 -96 -235 -212
-282 -640 -481 -1265 -587 -744 -126 -1819 -99 -2445 60 -161 41 -340 100
-340 112 0 6 25 8 68 4 342 -33 1220 -34 1528 -3 896 90 1474 288 1829 628
135 128 239 278 283 406 6 17 13 32 16 32 3 0 32 -16 66 -36z m-4403 -1254
c399 -260 940 -412 1703 -476 251 -22 941 -25 1180 -6 814 65 1374 220 1783
493 49 33 91 59 93 59 3 0 4 -93 2 -207 l-3 -208 -32 -62 c-70 -137 -173 -239
-351 -346 -309 -187 -841 -316 -1467 -357 -88 -5 -196 -12 -240 -15 -67 -5
-77 -4 -64 7 10 8 19 35 22 65 l6 53 -58 -6 c-61 -7 -117 12 -153 53 -17 18
-16 19 27 31 26 7 58 26 80 48 34 34 37 35 50 17 8 -10 15 -21 15 -26 0 -10
61 -47 77 -47 11 0 43 59 43 79 0 3 -10 11 -22 16 -15 7 -23 19 -23 35 0 34
45 40 75 10 18 -18 21 -31 18 -78 -2 -32 -7 -64 -11 -72 -5 -11 5 -22 35 -38
39 -21 44 -22 55 -6 17 24 27 97 19 151 -8 63 -41 112 -90 134 -50 23 -85 24
-133 4 -45 -19 -43 -19 -43 8 0 12 -7 35 -15 51 -8 15 -15 30 -15 32 0 2 90 4
200 4 l200 0 0 45 0 45 -390 0 -390 0 0 -45 0 -45 111 0 111 0 34 -34 c29 -29
34 -41 34 -81 0 -38 -5 -52 -29 -75 -34 -35 -79 -49 -92 -29 -5 8 -9 29 -9 48
0 36 5 36 -78 3 -43 -17 -44 -18 -39 -58 6 -54 49 -147 92 -200 21 -26 60 -55
97 -73 l61 -31 -210 0 c-1014 0 -1818 184 -2176 498 -77 67 -147 155 -177 223
-23 51 -25 67 -28 267 -2 116 -1 212 2 212 2 0 54 -32 113 -70z"/>
<path d="M7039 7331 c-32 -32 -39 -46 -39 -77 0 -49 29 -97 66 -112 109 -43
286 -102 306 -102 62 0 126 80 113 141 -15 66 -51 91 -219 150 -144 51 -176
51 -227 0z"/>
</g>
</svg>
