<?xml version="1.0" standalone="no"?>
<!DOCTYPE svg PUBLIC "-//W3C//DTD SVG 20010904//EN"
 "http://www.w3.org/TR/2001/REC-SVG-20010904/DTD/svg10.dtd">

<svg version="1.0" xmlns="http://www.w3.org/2000/svg"
 width="1071.000000pt" height="50.000000pt" viewBox="0 0 10197.000000 3750.000000"
 preserveAspectRatio="xMidYMid meet">
        <linearGradient id="blueGradient" x1="0%" y1="0%" x2="100%" y2="0%">
            <stop offset="0%" stop-color="#476697"/>  <!-- Dark Blue -->
            <stop offset="50%" stop-color="#618ed1"/>  <!-- Sky Blue -->
            <stop offset="100%" stop-color="#96b3df"/> <!-- Light Blue -->
        </linearGradient>
    <circle cx="8090.5" cy="1680" r="1500"
     fill="#f4b746"
      stroke="url(#blueGradient)" stroke-width="100"
          stroke-dasharray="5000" stroke-dashoffset="0" stroke-linecap="round">
        <animateTransform attributeType="XML" 
                          attributeName="transform" 
                          type="rotate"
                          from="0 8098.5 1685"
                          to="360 8098.5 1685"
                          dur="1s" 
                          repeatCount="indefinite"/>  n 
    </circle>
<g transform="translate(0.000000,3750.000000) scale(0.100000,-0.100000)"
fill="#476697" stroke="none">
<path d="M80756 25642 c-3 -5 -64 -12 -136 -16 -73 -4 -139 -11 -148 -16 -9
-4 -48 -13 -87 -18 -138 -21 -200 -33 -217 -42 -10 -6 -23 -10 -30 -10 -15 0
-121 -31 -244 -70 -50 -17 -98 -30 -106 -30 -9 0 -21 -7 -28 -15 -7 -8 -22
-15 -34 -15 -12 0 -31 -7 -42 -15 -10 -8 -28 -15 -38 -15 -11 0 -27 -6 -35
-13 -9 -7 -36 -22 -61 -32 -106 -44 -137 -59 -178 -86 -24 -16 -49 -29 -57
-29 -8 0 -17 -5 -20 -11 -4 -5 -17 -14 -28 -20 -73 -31 -400 -262 -468 -330
-10 -10 -23 -19 -27 -19 -8 0 -43 -32 -214 -197 -63 -60 -201 -211 -212 -231
-5 -9 -19 -27 -31 -40 -12 -12 -35 -41 -51 -65 -16 -23 -47 -64 -70 -92 -22
-27 -44 -57 -48 -65 -10 -21 -25 -46 -74 -118 -23 -35 -42 -68 -42 -74 0 -6
-6 -19 -14 -27 -19 -21 -103 -184 -127 -246 -20 -51 -41 -99 -66 -147 -7 -14
-13 -34 -13 -45 0 -10 -7 -27 -15 -37 -8 -11 -15 -31 -15 -45 0 -14 -7 -35
-15 -45 -8 -11 -15 -31 -15 -44 0 -13 -6 -33 -12 -45 -7 -12 -18 -44 -24 -72
-7 -27 -20 -79 -29 -115 -9 -36 -22 -92 -28 -125 -7 -33 -15 -65 -19 -70 -3
-6 -9 -48 -13 -95 -3 -47 -11 -96 -16 -110 -29 -77 -32 -386 -35 -4049 -4
-3457 -3 -3726 13 -3743 15 -17 50 -18 709 -18 543 0 695 3 701 13 4 6 11
1686 14 3732 6 3670 8 3885 38 3995 5 19 13 62 17 95 3 33 10 65 14 70 5 6 11
33 15 60 4 28 14 62 21 77 8 15 14 37 14 50 0 13 7 32 15 42 8 11 15 30 15 42
0 12 6 35 14 51 8 15 38 78 67 138 30 61 65 128 79 150 45 72 49 80 56 95 24
51 215 259 304 332 93 75 232 178 242 178 6 0 25 11 42 23 39 30 177 97 198
97 8 0 21 7 28 15 7 8 21 15 32 15 11 0 32 6 46 14 15 8 54 22 87 31 33 10 71
21 85 25 88 28 187 45 340 61 130 13 648 5 703 -11 21 -6 69 -15 105 -19 72
-9 192 -36 232 -53 14 -6 39 -14 55 -18 35 -10 88 -28 130 -46 276 -116 458
-268 647 -539 35 -51 140 -259 153 -305 4 -14 13 -38 20 -55 17 -40 34 -105
48 -185 7 -36 16 -72 22 -80 14 -21 19 -540 7 -620 -6 -36 -17 -92 -26 -125
-8 -33 -21 -83 -28 -112 -7 -29 -19 -58 -26 -65 -6 -6 -12 -20 -12 -29 0 -16
-64 -151 -82 -174 -5 -5 -17 -21 -28 -34 -11 -13 -20 -28 -20 -33 0 -5 -6 -16
-12 -23 -7 -8 -26 -33 -43 -56 -60 -83 -233 -246 -343 -323 -120 -84 -359
-215 -394 -216 -7 0 -22 -7 -32 -15 -11 -8 -29 -15 -40 -15 -12 -1 -39 -9 -61
-20 -22 -11 -49 -19 -61 -20 -11 0 -24 -4 -30 -9 -10 -9 -77 -29 -144 -41 -25
-5 -65 -14 -90 -20 -69 -16 -177 -29 -256 -30 -38 0 -74 -4 -80 -10 -6 -6
-213 -11 -559 -12 l-550 -3 -3 -620 -2 -620 21 -17 c20 -17 78 -18 878 -19
471 0 894 -5 941 -9 184 -19 413 -66 505 -105 17 -7 41 -16 55 -20 31 -9 144
-60 190 -85 19 -11 49 -27 65 -35 17 -9 42 -23 56 -33 109 -70 159 -106 159
-111 0 -3 17 -17 37 -31 43 -29 117 -101 155 -151 24 -33 53 -67 88 -108 17
-20 34 -50 97 -171 48 -90 68 -141 84 -205 6 -22 14 -47 19 -56 5 -9 12 -38
15 -65 4 -27 11 -54 15 -59 34 -42 45 -592 17 -815 -22 -181 -70 -375 -113
-463 -8 -16 -14 -34 -14 -40 0 -17 -41 -98 -72 -141 -15 -21 -28 -43 -28 -49
0 -5 -13 -26 -30 -47 -16 -21 -30 -42 -30 -47 0 -31 -318 -313 -353 -313 -5 0
-28 -13 -51 -29 -24 -15 -65 -36 -92 -46 -27 -10 -54 -22 -59 -26 -6 -4 -42
-17 -80 -29 -39 -12 -81 -26 -95 -32 -32 -13 -127 -36 -205 -50 -33 -5 -68
-14 -77 -19 -10 -5 -30 -9 -44 -9 -32 0 -140 -17 -209 -32 -35 -8 -391 -13
-1170 -17 l-1120 -6 -3 -655 c-1 -360 0 -665 3 -677 l5 -23 1070 0 c588 0
1071 4 1074 8 3 5 103 12 223 16 120 3 231 11 248 16 16 5 73 14 125 20 52 5
122 14 155 19 84 12 384 77 418 90 16 6 41 11 55 11 15 0 36 6 47 14 11 7 36
16 55 18 19 3 51 11 70 18 19 7 60 22 90 33 138 49 196 74 357 154 83 41 157
81 164 89 6 8 16 14 21 14 21 0 226 144 300 211 42 38 81 69 86 69 14 0 272
287 281 313 2 7 22 37 45 67 51 69 63 87 80 125 8 17 23 41 34 55 22 29 74
137 127 265 21 50 41 94 46 99 5 6 9 21 9 34 0 13 6 36 14 50 12 24 37 112 52
182 3 14 8 32 12 40 13 32 58 287 72 410 5 41 9 111 9 156 1 44 6 85 11 90 22
22 -3 764 -29 848 -5 17 -12 61 -16 98 -4 37 -11 70 -16 73 -5 4 -9 21 -9 38
0 18 -5 48 -11 67 -6 19 -17 60 -24 90 -27 110 -100 328 -116 344 -5 6 -9 18
-9 27 0 9 -7 22 -15 29 -8 7 -15 21 -15 31 0 41 -172 330 -262 439 -15 19 -40
49 -53 65 -14 17 -35 43 -47 60 -31 40 -187 195 -198 195 -4 0 -25 17 -47 38
-48 45 -91 79 -120 95 -12 7 -69 44 -127 83 -57 39 -176 105 -263 148 -87 43
-171 84 -186 92 -16 8 -35 14 -44 14 -8 0 -27 7 -41 15 -15 8 -83 33 -152 56
-69 22 -131 46 -138 51 -19 16 -1 30 106 83 53 26 111 58 129 71 17 13 43 28
58 34 38 14 196 122 202 137 3 7 11 13 18 13 6 0 24 10 38 23 14 12 56 47 93
77 87 70 224 201 224 213 0 5 18 31 41 56 23 25 50 56 60 67 10 12 19 27 19
33 0 5 8 18 18 28 27 28 72 90 72 102 0 5 6 16 13 23 7 7 24 36 37 63 13 28
29 57 35 65 6 8 26 49 44 90 18 41 39 89 47 105 18 41 70 202 79 245 4 19 11
40 15 45 4 6 11 39 15 75 4 36 11 70 15 75 18 22 33 263 33 525 0 268 -9 404
-31 505 -6 28 -15 73 -20 100 -6 28 -17 77 -25 110 -9 33 -21 83 -27 110 -6
28 -17 62 -25 77 -8 14 -15 36 -15 48 0 12 -6 34 -14 48 -23 44 -46 99 -46
112 0 11 -17 47 -41 90 -5 8 -11 20 -13 25 -2 6 -7 17 -10 25 -3 8 -29 56 -56
105 -27 50 -55 101 -62 115 -14 26 -16 31 -48 69 -11 13 -20 30 -20 37 0 7 -6
17 -13 21 -8 4 -17 15 -21 23 -14 29 -31 56 -51 77 -11 11 -38 44 -60 73 -104
136 -305 338 -419 422 -28 21 -56 42 -62 47 -33 28 -177 123 -229 151 -160 88
-328 169 -398 193 -43 15 -85 31 -95 36 -9 5 -44 17 -77 26 -33 9 -80 23 -105
30 -25 8 -65 19 -90 25 -25 7 -55 16 -68 21 -13 5 -34 9 -47 9 -13 0 -26 4
-29 9 -3 5 -41 12 -83 16 -43 4 -85 11 -94 16 -9 4 -54 11 -100 15 -46 4 -89
11 -95 15 -6 5 -77 12 -158 15 -81 4 -149 11 -152 16 -7 11 -701 11 -708 0z"/>
<path d="M74280 25481 c-8 -5 -83 -11 -167 -15 -84 -3 -171 -10 -195 -16 -24
-5 -83 -14 -133 -19 -166 -18 -260 -32 -280 -41 -11 -5 -48 -12 -83 -15 -34
-4 -65 -11 -68 -16 -3 -5 -20 -9 -37 -9 -18 0 -48 -5 -67 -11 -39 -12 -119
-32 -195 -49 -27 -6 -62 -17 -77 -25 -14 -8 -38 -15 -52 -15 -15 0 -34 -4 -44
-9 -9 -5 -73 -28 -142 -50 -204 -65 -228 -74 -293 -107 -16 -8 -35 -14 -43
-14 -7 0 -43 -16 -78 -35 -36 -19 -71 -35 -78 -35 -15 0 -243 -114 -303 -151
-22 -14 -51 -30 -65 -37 -30 -14 -38 -19 -163 -102 -54 -36 -109 -72 -122 -80
-73 -46 -195 -134 -195 -140 0 -4 -10 -12 -22 -17 -26 -13 -83 -60 -140 -115
-21 -21 -43 -38 -48 -38 -11 0 -405 -391 -411 -407 -4 -11 -39 -53 -126 -150
-18 -20 -33 -42 -33 -49 0 -8 -4 -14 -8 -14 -5 0 -26 -25 -48 -56 -21 -31 -63
-88 -92 -127 -29 -40 -67 -94 -83 -122 -16 -27 -35 -59 -42 -70 -22 -36 -61
-100 -72 -117 -39 -67 -215 -424 -215 -438 0 -10 -7 -23 -15 -30 -8 -7 -15
-20 -15 -29 0 -9 -7 -25 -15 -35 -8 -11 -15 -26 -15 -34 0 -7 -13 -43 -30 -79
-16 -35 -30 -72 -30 -81 0 -9 -6 -29 -14 -44 -8 -15 -17 -42 -21 -60 -4 -18
-11 -37 -15 -43 -4 -5 -11 -25 -15 -43 -4 -18 -13 -45 -21 -60 -8 -15 -14 -35
-14 -45 0 -9 -4 -25 -9 -35 -5 -9 -19 -55 -30 -102 -12 -47 -29 -110 -37 -140
-22 -88 -76 -351 -81 -400 -3 -25 -9 -49 -13 -55 -4 -5 -11 -46 -15 -90 -4
-44 -11 -84 -15 -90 -4 -5 -11 -64 -15 -130 -3 -66 -10 -131 -16 -145 -26 -70
-53 -1220 -29 -1244 5 -5 10 -53 11 -105 1 -103 9 -204 33 -396 8 -66 20 -165
26 -220 6 -55 14 -107 17 -115 11 -27 43 -174 53 -240 5 -36 13 -72 16 -80 7
-17 30 -113 45 -185 5 -27 14 -59 18 -70 15 -34 62 -197 73 -249 5 -27 15 -58
23 -70 7 -12 27 -64 45 -116 18 -52 43 -118 56 -147 13 -28 24 -55 24 -59 0
-27 279 -577 308 -606 6 -6 12 -16 12 -21 0 -16 127 -202 225 -330 49 -65 103
-137 119 -160 48 -68 532 -546 643 -635 56 -45 106 -82 110 -82 3 0 16 -9 27
-19 27 -25 337 -231 347 -231 5 0 28 -13 52 -30 25 -16 48 -30 53 -30 4 0 15
-7 24 -15 14 -13 105 -59 285 -145 99 -47 186 -85 253 -110 34 -12 65 -27 68
-31 3 -5 17 -9 32 -9 15 0 36 -6 47 -13 21 -15 238 -87 260 -87 7 0 26 -7 41
-15 16 -8 38 -15 48 -15 11 0 42 -6 70 -14 147 -42 355 -87 486 -107 30 -4 78
-13 105 -19 74 -16 176 -30 300 -41 61 -5 130 -14 155 -20 25 -6 170 -13 323
-16 153 -3 280 -10 283 -15 3 -4 246 -8 539 -8 518 0 535 1 545 19 11 21 15
1278 4 1319 l-6 22 -577 1 c-602 1 -928 10 -1046 28 -38 6 -101 15 -140 21
-155 21 -221 31 -235 37 -8 4 -44 12 -80 19 -80 15 -150 33 -170 43 -9 5 -31
12 -50 15 -41 8 -240 75 -255 86 -5 3 -31 14 -56 24 -64 23 -322 155 -391 199
-31 21 -59 37 -62 37 -3 0 -43 29 -89 63 -45 35 -88 66 -94 68 -34 12 -295
256 -366 341 -15 18 -58 68 -95 110 -37 42 -86 103 -110 135 -23 32 -58 79
-77 105 -19 26 -35 50 -35 53 0 4 -13 24 -29 44 -15 20 -31 46 -35 59 -4 12
-11 22 -16 22 -5 0 -12 10 -16 23 -4 12 -17 36 -29 52 -12 17 -33 53 -46 80
-13 28 -28 57 -35 65 -20 25 -74 132 -74 146 0 7 -16 43 -35 81 -19 37 -35 75
-35 84 0 8 -4 19 -9 25 -5 5 -25 50 -43 99 -52 136 -59 157 -69 200 -6 22 -14
44 -20 49 -5 6 -9 19 -9 30 0 12 -6 33 -14 47 -7 14 -17 48 -21 75 -4 27 -11
54 -16 60 -5 6 -12 33 -15 60 -3 27 -9 58 -14 69 -21 48 -65 261 -86 420 -47
335 -66 699 -53 980 10 218 31 465 40 480 4 6 10 46 14 90 3 44 11 94 15 110
5 17 14 62 19 100 9 63 20 112 66 295 8 30 20 78 27 107 7 28 16 55 21 59 4 4
7 16 7 26 0 24 78 260 90 272 6 6 10 19 10 29 0 10 6 31 13 45 8 15 21 42 30
60 9 19 17 38 17 44 0 16 191 398 222 444 15 23 28 45 28 48 0 3 16 29 35 56
19 27 35 53 35 56 0 3 14 23 30 44 17 21 30 40 30 43 0 10 131 185 163 219 11
11 29 34 40 52 45 65 313 336 361 363 14 8 77 59 124 101 13 12 31 22 39 22 7
0 16 6 19 14 3 8 13 17 22 20 9 3 29 14 43 23 128 88 147 98 314 182 77 39
148 71 157 71 8 0 21 7 28 15 7 8 22 15 34 15 12 0 30 6 41 14 11 7 35 17 53
21 18 4 45 13 60 21 15 8 36 14 47 14 11 0 29 7 39 15 11 8 33 15 49 15 15 0
37 5 47 10 21 11 118 33 240 55 41 7 75 14 75 15 0 4 198 30 295 39 52 5 433
9 847 10 733 1 753 1 763 20 11 21 15 1278 4 1319 l-6 22 -742 0 c-407 0 -748
-4 -756 -9z"/>
<path d="M88907 25484 c-4 -4 -73 -11 -154 -15 -82 -5 -175 -13 -208 -19 -33
-5 -89 -15 -125 -21 -92 -15 -195 -36 -270 -54 -36 -9 -86 -20 -112 -26 -26
-5 -60 -16 -75 -24 -15 -8 -37 -15 -48 -15 -11 0 -29 -7 -39 -15 -11 -8 -31
-15 -45 -15 -14 0 -35 -7 -45 -15 -11 -8 -28 -15 -38 -15 -10 0 -26 -4 -36 -9
-43 -24 -169 -81 -178 -81 -11 0 -79 -33 -97 -48 -7 -5 -43 -26 -81 -47 -110
-58 -281 -175 -299 -202 -4 -7 -13 -13 -18 -13 -23 0 -193 -158 -280 -261 -68
-80 -199 -259 -199 -271 0 -6 -6 -19 -14 -27 -21 -23 -116 -213 -116 -231 0
-9 -4 -20 -8 -25 -13 -14 -70 -174 -78 -215 -4 -19 -10 -39 -14 -45 -5 -5 -11
-32 -15 -60 -4 -27 -11 -54 -15 -60 -5 -5 -11 -37 -14 -70 -4 -33 -11 -78 -17
-100 -43 -175 -43 -891 0 -1045 5 -19 14 -64 19 -100 6 -36 17 -94 26 -130 9
-36 21 -87 27 -115 6 -27 14 -54 19 -60 4 -5 11 -24 15 -42 3 -18 17 -55 31
-83 13 -27 24 -55 24 -61 0 -15 162 -339 203 -406 55 -89 124 -187 166 -235
23 -25 41 -49 41 -53 0 -18 250 -278 347 -361 162 -139 423 -334 447 -334 3 0
36 -20 73 -45 37 -25 71 -45 76 -45 4 0 23 -11 40 -24 18 -12 55 -33 82 -46
28 -13 57 -29 65 -36 18 -15 152 -84 163 -84 5 0 52 -21 105 -46 140 -67 178
-84 186 -84 4 0 31 -11 59 -24 29 -13 80 -34 115 -46 34 -12 65 -27 68 -31 3
-5 15 -9 27 -9 12 0 35 -7 50 -15 15 -8 45 -17 65 -21 20 -4 42 -10 47 -14 6
-4 46 -20 90 -35 44 -15 84 -31 89 -36 6 -5 17 -9 25 -9 13 0 79 -27 123 -51
10 -5 25 -9 34 -9 9 0 28 -7 42 -15 37 -19 119 -55 129 -55 4 0 36 -13 71 -30
141 -68 189 -90 237 -109 28 -10 79 -35 115 -54 36 -20 103 -55 150 -79 47
-24 113 -62 147 -86 34 -23 66 -42 70 -42 5 0 41 -22 81 -50 40 -27 75 -50 78
-50 14 0 254 -191 304 -242 62 -64 140 -154 140 -162 0 -3 20 -33 45 -65 73
-96 148 -250 175 -361 6 -25 15 -54 20 -65 27 -60 54 -520 34 -564 -4 -9 -13
-54 -20 -101 -17 -118 -34 -190 -50 -222 -8 -14 -14 -31 -14 -38 0 -25 -97
-225 -117 -242 -7 -6 -13 -15 -13 -20 0 -6 -13 -27 -30 -48 -16 -21 -30 -42
-30 -47 0 -25 -331 -325 -380 -345 -9 -3 -43 -23 -76 -44 -59 -38 -202 -113
-217 -114 -4 0 -35 -13 -70 -29 -72 -33 -117 -49 -171 -62 -22 -6 -44 -13 -50
-17 -37 -23 -270 -75 -551 -122 -147 -25 -346 -28 -1567 -29 l-1257 -1 -15
-22 c-14 -20 -16 -99 -16 -660 0 -625 0 -638 20 -658 20 -20 29 -20 1418 -16
1334 3 1818 12 1867 35 11 5 53 12 94 16 40 4 81 10 90 15 9 5 50 15 91 23
135 27 404 98 416 110 4 4 17 7 29 7 12 0 30 7 41 15 10 8 25 15 32 15 19 0
247 93 317 129 33 17 66 31 73 31 7 0 31 12 55 27 23 15 76 45 117 66 108 56
131 69 167 95 17 12 36 22 41 22 6 0 17 6 24 13 21 19 76 57 84 57 3 0 23 14
44 30 21 17 41 30 45 30 25 0 305 250 398 354 108 122 257 316 257 334 0 5 14
29 32 53 30 42 90 150 139 249 12 25 35 71 50 103 16 31 29 66 29 77 0 10 4
21 8 24 13 8 122 355 122 388 0 9 4 19 9 22 4 3 11 38 15 78 4 40 11 87 17
104 18 58 31 277 31 514 0 246 -16 541 -31 575 -5 11 -13 58 -19 105 -9 74
-29 167 -62 290 -5 19 -15 60 -22 90 -8 30 -19 65 -26 77 -6 12 -12 32 -12 45
0 13 -6 32 -14 43 -7 11 -24 49 -37 85 -12 36 -48 115 -79 175 -81 158 -94
179 -107 188 -7 4 -13 15 -13 22 0 8 -4 15 -9 15 -5 0 -13 10 -17 23 -7 22
-13 30 -73 96 -17 19 -31 38 -31 43 0 12 -257 268 -269 268 -6 0 -25 16 -44
35 -19 19 -38 35 -43 35 -5 1 -20 14 -34 30 -13 17 -29 30 -36 30 -6 0 -27 15
-47 33 -51 46 -86 72 -185 136 -48 31 -102 67 -120 80 -33 23 -65 41 -195 110
-92 49 -103 55 -118 68 -8 6 -25 14 -39 18 -14 4 -80 34 -147 66 -67 32 -125
59 -129 59 -4 0 -32 12 -63 26 -63 29 -85 39 -186 79 -131 52 -170 67 -205 77
-19 5 -39 14 -44 19 -6 5 -20 9 -32 9 -13 0 -26 4 -29 10 -3 5 -24 14 -46 20
-22 6 -68 24 -102 39 -34 16 -73 32 -87 36 -23 7 -56 21 -176 76 -23 11 -45
19 -49 19 -4 0 -46 18 -94 41 -47 22 -133 63 -191 90 -58 27 -112 54 -120 59
-8 5 -93 48 -188 97 -187 95 -207 106 -267 144 -22 14 -47 29 -55 32 -16 8
-23 12 -155 97 -326 209 -529 420 -649 675 -60 127 -64 137 -72 185 -3 25 -11
51 -18 59 -16 20 -15 539 1 572 7 13 17 47 22 74 5 28 15 66 21 85 25 70 113
239 141 270 16 17 29 35 29 41 0 10 136 142 153 148 7 2 28 17 48 32 20 16 40
29 45 29 4 0 15 6 23 14 28 24 149 86 170 86 11 0 22 4 25 9 3 4 27 14 53 21
27 6 57 16 68 20 11 5 40 12 65 16 25 3 50 10 55 14 6 4 40 10 78 14 37 4 80
12 95 19 21 9 383 13 1552 17 l1525 5 0 675 0 675 -1526 3 c-839 1 -1529 -1
-1532 -4z"/>
<path d="M9330 24923 c-14 -2 -113 -10 -220 -18 -208 -16 -317 -29 -390 -46
-25 -6 -70 -15 -100 -19 -30 -5 -75 -14 -100 -20 -89 -23 -156 -41 -201 -56
-26 -7 -52 -14 -59 -14 -7 0 -26 -6 -43 -14 -18 -8 -60 -23 -93 -35 -34 -11
-79 -28 -100 -37 -22 -9 -48 -20 -59 -24 -33 -13 -308 -150 -337 -168 -15 -9
-60 -37 -100 -61 -40 -24 -99 -64 -130 -88 -31 -23 -61 -43 -67 -43 -6 0 -11
-4 -11 -8 0 -5 -29 -29 -64 -55 -131 -96 -399 -363 -520 -517 -55 -71 -228
-329 -258 -385 -14 -27 -38 -72 -52 -100 -15 -27 -30 -57 -35 -65 -4 -8 -15
-31 -24 -50 -9 -19 -32 -70 -51 -113 -20 -42 -36 -81 -36 -86 0 -5 -7 -22 -15
-37 -8 -16 -15 -36 -15 -44 0 -8 -7 -24 -15 -34 -8 -11 -15 -32 -15 -46 0 -14
-7 -35 -15 -46 -8 -10 -15 -29 -15 -41 0 -12 -6 -37 -14 -55 -7 -18 -19 -53
-25 -78 -42 -163 -63 -254 -81 -345 -6 -33 -18 -90 -26 -126 -8 -37 -14 -89
-14 -115 0 -27 -5 -67 -11 -89 -5 -22 -14 -110 -19 -195 -5 -85 -14 -209 -19
-275 -7 -79 -11 -1322 -11 -3632 0 -3179 1 -3513 16 -3527 14 -14 91 -16 703
-16 521 0 690 3 699 12 9 9 12 832 13 3637 0 2116 4 3657 9 3701 16 126 39
281 55 355 27 128 43 193 51 206 4 7 11 29 15 48 7 37 22 82 46 139 34 83 42
102 77 173 20 42 36 81 36 87 0 7 4 12 8 12 4 0 13 12 20 28 6 15 21 41 32 57
11 17 24 39 30 50 65 129 357 446 499 541 108 73 124 83 151 96 14 7 27 15 30
19 5 5 69 36 140 67 19 8 47 21 62 29 14 7 35 13 45 13 11 0 28 7 39 15 10 8
28 14 39 15 11 0 40 6 65 14 108 34 228 55 435 77 120 12 422 6 502 -11 26 -6
82 -14 123 -20 89 -11 174 -27 215 -42 17 -6 46 -13 65 -16 19 -2 44 -11 55
-18 11 -8 31 -14 45 -14 14 0 34 -7 44 -15 11 -8 30 -15 42 -15 12 0 27 -7 34
-15 7 -8 19 -15 26 -15 8 0 55 -22 106 -48 202 -106 384 -253 511 -412 29 -36
62 -76 74 -90 23 -26 85 -118 97 -141 3 -8 15 -27 25 -44 19 -29 88 -167 116
-230 36 -82 45 -107 45 -119 0 -8 7 -27 15 -42 8 -16 15 -39 15 -52 0 -13 5
-33 12 -45 6 -12 15 -42 19 -67 3 -25 11 -65 17 -90 30 -126 37 -215 37 -505
0 -291 -5 -364 -37 -495 -6 -25 -14 -65 -17 -90 -4 -25 -11 -51 -16 -59 -4 -8
-12 -31 -16 -50 -9 -42 -35 -119 -49 -143 -6 -10 -10 -25 -10 -34 0 -9 -7 -28
-15 -42 -8 -15 -26 -52 -40 -82 -15 -30 -42 -82 -60 -115 -19 -33 -38 -67 -42
-75 -50 -102 -251 -339 -403 -475 -99 -89 -285 -209 -425 -274 -38 -18 -83
-39 -98 -47 -16 -8 -35 -14 -44 -14 -8 0 -27 -6 -41 -14 -25 -12 -50 -20 -195
-60 -84 -23 -193 -41 -403 -66 -44 -6 -402 -10 -806 -10 -600 0 -728 -2 -737
-14 -8 -9 -10 -190 -9 -657 l3 -644 740 -3 c468 -2 775 1 835 8 294 32 470 57
534 76 26 8 63 14 81 14 18 0 49 7 68 15 20 8 51 15 69 15 18 1 44 7 58 15 14
8 39 15 55 15 17 0 41 7 55 15 14 8 36 14 48 15 13 0 38 6 55 14 18 8 43 16
57 19 30 6 103 32 147 52 17 8 36 15 42 15 6 0 27 7 48 16 21 9 52 22 68 29
151 62 298 132 430 205 50 27 99 54 110 60 11 6 34 19 50 30 17 11 37 23 45
27 28 13 165 106 260 177 137 103 375 342 458 461 19 27 38 52 41 55 12 10 95
132 108 159 3 8 20 36 37 61 26 39 67 120 202 393 8 16 14 35 14 42 0 7 6 26
14 42 27 55 46 104 46 121 0 9 6 29 14 44 8 14 17 45 21 67 4 23 11 43 16 47
5 3 9 19 9 35 0 16 6 45 14 64 8 19 18 56 21 82 4 26 13 67 21 91 8 23 14 62
14 87 0 24 5 56 11 72 6 15 15 78 19 138 5 61 14 142 19 180 17 113 14 623 -4
739 -8 55 -15 120 -15 145 0 42 -11 116 -40 261 -6 30 -15 78 -19 105 -5 28
-16 73 -24 100 -28 87 -47 157 -47 170 0 7 -7 26 -15 41 -8 16 -15 37 -15 46
0 10 -6 32 -14 50 -8 18 -22 53 -31 78 -36 96 -56 140 -130 290 -60 122 -65
131 -107 198 -16 24 -28 45 -28 47 0 3 -25 42 -82 129 -115 174 -344 436 -504
576 -28 25 -65 57 -82 72 -17 15 -54 43 -84 64 -29 20 -55 41 -58 45 -11 16
-233 157 -316 200 -28 14 -69 36 -90 47 -22 11 -75 37 -119 57 -44 20 -88 40
-97 46 -10 5 -23 9 -29 9 -6 0 -25 7 -42 15 -37 17 -109 43 -152 55 -28 8 -53
16 -127 41 -18 6 -54 15 -80 19 -26 5 -56 13 -67 19 -11 6 -32 11 -48 11 -15
0 -48 6 -73 14 -51 16 -149 34 -260 46 -41 5 -102 13 -135 19 -138 24 -664 48
-755 34z"/>
<path d="M39571 24295 c-18 -8 -42 -15 -53 -15 -11 0 -32 -6 -46 -13 -15 -8
-49 -25 -76 -38 -62 -31 -184 -144 -231 -214 -46 -70 -105 -189 -105 -213 0
-10 -5 -23 -11 -29 -27 -27 -47 -275 -30 -377 21 -124 51 -205 140 -373 7 -14
48 -60 90 -102 55 -55 96 -86 146 -110 39 -19 79 -38 90 -44 11 -6 40 -14 65
-18 25 -4 63 -12 85 -18 62 -16 303 -14 361 4 27 8 60 15 72 15 51 0 204 79
274 141 56 49 159 189 183 249 4 8 12 29 19 45 40 94 65 223 65 335 0 74 -21
218 -40 270 -47 130 -120 249 -205 333 -58 58 -159 127 -185 127 -8 0 -23 7
-33 15 -11 8 -30 15 -42 15 -12 0 -38 7 -57 15 -51 21 -426 21 -476 0z"/>
<path d="M22700 21590 c-74 -5 -155 -13 -180 -19 -25 -5 -68 -10 -96 -11 -28
0 -71 -7 -94 -15 -23 -8 -59 -15 -80 -15 -21 0 -57 -7 -80 -15 -23 -8 -57 -15
-74 -15 -17 -1 -42 -7 -56 -15 -14 -8 -38 -14 -55 -15 -16 0 -42 -6 -57 -14
-14 -8 -45 -17 -67 -21 -23 -4 -43 -10 -46 -15 -3 -4 -20 -11 -39 -14 -20 -4
-48 -13 -63 -21 -15 -8 -35 -15 -43 -15 -8 0 -24 -7 -34 -15 -11 -8 -28 -15
-37 -15 -15 0 -52 -15 -99 -42 -8 -4 -22 -11 -30 -14 -67 -27 -267 -133 -288
-151 -7 -7 -18 -13 -24 -13 -5 0 -27 -12 -47 -27 -20 -16 -44 -32 -53 -38 -44
-27 -155 -105 -173 -122 -11 -11 -28 -24 -37 -29 -33 -18 -146 -121 -284 -259
-172 -172 -290 -316 -430 -525 -20 -30 -49 -74 -65 -96 -16 -23 -33 -52 -39
-65 -6 -13 -19 -37 -29 -54 -11 -16 -52 -95 -91 -175 -69 -140 -86 -176 -108
-230 -6 -14 -19 -45 -29 -70 -26 -61 -43 -109 -53 -148 -4 -18 -12 -38 -18
-45 -5 -7 -12 -25 -15 -42 -2 -16 -9 -43 -15 -60 -29 -85 -35 -105 -48 -160
-8 -33 -19 -82 -25 -110 -5 -27 -15 -62 -20 -77 -6 -15 -15 -53 -20 -85 -12
-85 -28 -177 -44 -268 -9 -44 -15 -103 -15 -131 0 -28 -7 -95 -15 -150 -11
-73 -15 -189 -15 -449 0 -260 4 -376 15 -449 8 -55 15 -122 15 -149 0 -27 6
-79 14 -116 8 -36 20 -93 26 -126 11 -62 30 -154 50 -240 6 -27 18 -64 26 -82
8 -17 14 -41 14 -53 0 -12 5 -31 12 -43 6 -12 15 -35 19 -52 10 -43 29 -96 45
-127 8 -14 14 -33 14 -41 0 -9 6 -28 14 -44 8 -15 27 -57 44 -93 50 -106 112
-233 134 -270 11 -19 30 -53 41 -75 43 -78 246 -368 281 -400 6 -5 29 -32 51
-60 197 -245 526 -525 830 -704 77 -45 147 -86 155 -91 8 -5 35 -19 60 -30 25
-12 52 -26 60 -31 8 -5 22 -12 30 -15 22 -8 69 -28 121 -53 25 -11 51 -21 56
-21 6 0 24 -7 39 -15 16 -8 36 -15 44 -15 8 0 24 -7 34 -15 11 -8 28 -15 38
-15 9 0 32 -6 50 -14 57 -23 102 -38 143 -46 22 -4 54 -12 70 -18 46 -16 115
-32 172 -42 28 -4 66 -13 85 -18 37 -12 120 -26 283 -47 61 -8 146 -19 190
-25 111 -16 858 -16 950 0 39 6 115 17 170 25 132 17 219 33 281 51 28 8 63
14 78 14 15 0 37 5 49 12 12 6 40 15 62 19 22 4 54 11 70 17 17 6 46 15 65 22
19 6 49 15 65 20 45 12 95 31 141 51 23 11 46 19 53 19 6 0 19 4 29 9 9 6 40
20 67 32 78 34 178 81 195 90 8 4 38 20 65 34 28 14 57 30 65 35 8 5 48 28 88
52 40 24 85 51 100 60 15 10 34 21 42 25 8 4 20 11 25 15 20 17 102 76 156
114 88 62 129 96 129 111 0 8 -118 129 -262 271 -145 141 -345 338 -446 437
-140 138 -186 177 -196 170 -8 -6 -41 -27 -73 -49 -32 -21 -71 -48 -88 -59
-45 -32 -316 -167 -335 -167 -9 0 -25 -7 -36 -15 -10 -8 -27 -15 -37 -15 -11
0 -33 -6 -50 -14 -18 -8 -52 -19 -77 -26 -91 -24 -166 -42 -215 -51 -27 -6
-70 -15 -95 -21 -25 -5 -88 -14 -140 -18 -52 -5 -161 -14 -242 -21 -150 -13
-162 -12 -530 21 -53 5 -105 13 -115 18 -10 5 -42 12 -71 15 -29 4 -68 11 -85
16 -18 6 -66 20 -107 32 -41 12 -89 28 -107 35 -17 8 -35 14 -41 14 -5 0 -23
7 -38 15 -16 8 -36 15 -45 15 -9 0 -22 7 -29 15 -7 8 -19 15 -26 15 -20 0
-249 122 -264 140 -3 3 -23 17 -45 30 -22 13 -45 29 -52 35 -6 5 -22 18 -35
27 -257 192 -523 510 -659 788 -65 134 -89 188 -89 201 0 8 -7 24 -15 35 -8
10 -15 27 -15 36 0 10 -6 32 -14 50 -13 31 -20 55 -60 201 -17 61 -33 145 -47
242 -5 39 -15 102 -22 140 -8 44 -12 177 -12 360 0 274 4 329 35 530 30 185
95 435 136 518 8 16 14 35 14 44 0 8 6 27 13 41 8 15 21 43 29 62 38 88 99
210 108 215 6 3 10 12 10 20 0 8 14 34 30 58 17 25 30 48 30 51 0 7 127 194
141 206 3 3 32 39 64 80 76 96 209 229 307 307 75 59 216 156 270 184 150 79
269 128 408 168 120 35 141 41 210 52 36 6 90 16 120 22 32 6 182 10 355 11
246 0 312 -3 365 -16 36 -9 81 -20 100 -23 46 -9 127 -34 167 -51 17 -8 35
-14 41 -14 16 0 174 -85 237 -128 72 -48 161 -137 208 -209 44 -65 95 -190
109 -263 5 -30 14 -75 18 -100 12 -63 12 -242 -1 -320 -5 -36 -14 -100 -19
-142 -5 -42 -13 -86 -19 -97 -6 -11 -11 -29 -11 -40 0 -22 -33 -126 -55 -176
-59 -130 -86 -174 -163 -265 -72 -85 -185 -171 -291 -221 -47 -23 -99 -47
-114 -55 -16 -8 -35 -14 -42 -14 -8 0 -26 -5 -42 -12 -55 -23 -242 -64 -373
-83 -238 -33 -311 -37 -835 -43 l-550 -7 0 -575 0 -575 350 -3 c360 -4 819 10
960 29 44 6 125 15 180 19 55 5 113 13 128 19 16 6 47 11 70 11 23 0 58 5 77
10 19 6 67 17 105 25 102 20 163 34 222 51 29 8 79 22 110 30 32 9 73 23 91
30 18 8 43 14 55 14 12 0 31 7 41 15 11 8 28 15 39 15 10 0 31 6 45 13 27 14
81 38 137 62 48 20 197 95 230 116 17 10 39 23 50 29 174 92 454 340 586 518
71 95 102 140 112 162 4 8 16 29 27 45 11 17 22 37 26 45 3 8 9 22 14 30 11
18 46 93 64 135 7 17 20 46 29 65 9 19 19 48 23 64 4 16 13 41 20 55 8 14 14
32 14 40 0 7 6 34 14 60 32 102 46 159 46 189 0 17 5 43 11 59 6 15 15 71 20
123 4 52 13 124 18 160 14 85 14 458 0 535 -5 33 -14 98 -19 145 -5 47 -14
104 -19 128 -6 23 -16 61 -22 85 -5 23 -14 61 -19 84 -5 23 -13 50 -19 60 -5
10 -17 41 -26 68 -22 62 -52 135 -65 155 -6 8 -13 22 -16 30 -3 8 -10 22 -15
30 -5 8 -12 22 -16 30 -15 33 -100 160 -159 235 -82 105 -177 196 -294 284
-52 39 -99 74 -105 79 -19 14 -118 74 -139 83 -12 5 -29 13 -38 19 -10 5 -26
15 -35 20 -10 6 -25 13 -33 16 -8 3 -22 10 -30 15 -8 5 -22 12 -30 15 -8 3
-28 12 -45 19 -16 8 -42 17 -58 21 -15 3 -30 10 -33 15 -3 5 -12 9 -21 9 -8 0
-29 6 -46 14 -18 8 -66 24 -107 36 -41 13 -92 29 -113 36 -20 8 -49 14 -63 14
-14 0 -35 5 -46 11 -12 7 -47 15 -77 20 -31 4 -81 13 -111 19 -133 27 -170 32
-260 40 -52 5 -120 14 -150 20 -70 13 -692 21 -870 10z"/>
<path d="M16829 21440 c-185 -4 -341 -10 -347 -14 -7 -4 -63 -14 -125 -21
-136 -17 -288 -48 -372 -77 -16 -5 -46 -14 -65 -18 -34 -8 -80 -23 -130 -43
-14 -5 -38 -13 -55 -18 -34 -9 -110 -35 -140 -48 -76 -33 -247 -119 -280 -140
-58 -37 -78 -49 -95 -57 -116 -56 -482 -422 -533 -534 -4 -8 -16 -28 -26 -45
-38 -60 -161 -314 -161 -333 0 -7 -4 -20 -10 -30 -13 -23 -39 -98 -50 -142 -4
-19 -13 -48 -18 -65 -27 -80 -56 -198 -77 -317 -7 -42 -16 -81 -19 -87 -3 -5
-10 -47 -16 -93 -5 -45 -14 -103 -19 -128 -6 -25 -11 -72 -11 -105 -1 -33 -8
-105 -17 -160 -14 -88 -16 -375 -20 -2412 -3 -1679 -1 -2317 7 -2332 11 -21
13 -21 658 -19 l647 3 6 2230 c4 1547 9 2245 17 2280 6 28 11 91 12 140 0 50
7 121 15 160 8 38 15 86 15 105 0 19 5 51 10 70 6 19 17 64 25 100 20 95 35
151 51 187 8 17 14 36 14 43 0 7 6 24 14 38 8 15 24 47 36 72 49 101 74 136
158 218 77 76 182 152 252 182 42 18 74 31 105 46 17 7 44 16 60 20 17 4 35
11 41 15 6 5 31 13 55 19 24 5 64 13 89 19 140 30 254 34 1208 38 l972 5 0
623 0 623 -22 6 c-30 7 -1421 5 -1859 -4z"/>
<path d="M27412 21438 c-17 -17 -18 -7208 0 -7226 9 -9 168 -12 654 -12 576 0
642 2 648 16 3 9 6 1348 6 2977 0 1849 4 2968 10 2977 8 13 166 15 1305 18
888 1 1302 -1 1315 -8 20 -11 20 -44 20 -2976 0 -2025 3 -2971 10 -2985 10
-18 28 -19 654 -19 578 0 644 2 650 16 3 9 6 1347 6 2975 0 2946 0 2959 20
2979 19 19 33 20 383 20 199 -1 439 -5 532 -11 94 -5 247 -13 340 -19 94 -5
186 -14 205 -19 19 -6 55 -11 80 -11 25 0 65 -5 90 -11 25 -6 74 -17 110 -24
139 -28 242 -62 320 -107 8 -4 25 -13 38 -18 53 -23 163 -108 249 -194 78 -77
133 -149 200 -261 18 -31 83 -165 83 -173 1 -4 9 -25 20 -47 11 -22 19 -48 20
-58 0 -10 5 -28 12 -40 6 -12 15 -40 19 -62 4 -22 12 -58 18 -80 22 -87 32
-155 41 -270 6 -66 13 -127 17 -135 5 -8 10 -1012 13 -2230 l5 -2215 650 0
650 0 3 2360 c2 2065 0 2373 -13 2463 -8 56 -15 128 -15 160 -1 31 -7 84 -15
117 -8 33 -15 77 -15 98 0 21 -6 66 -14 100 -8 34 -19 85 -25 112 -13 70 -61
260 -85 340 -56 187 -177 430 -278 559 -123 157 -273 310 -368 376 -19 13 -41
30 -48 37 -20 20 -160 114 -197 133 -11 6 -33 19 -50 29 -36 23 -173 92 -230
116 -22 9 -53 22 -70 30 -36 15 -89 34 -130 45 -16 5 -46 14 -65 20 -19 7 -48
16 -65 22 -16 6 -51 14 -78 18 -26 5 -62 13 -80 19 -41 12 -135 29 -262 46
-55 8 -129 19 -165 26 -97 18 -7110 25 -7128 7z"/>
<path d="M38621 21421 c-12 -16 -21 -32 -21 -36 0 -7 -27 -64 -167 -355 -65
-134 -117 -244 -198 -415 -24 -49 -65 -137 -93 -195 -28 -58 -62 -129 -76
-159 -14 -30 -26 -58 -26 -63 0 -4 270 -8 599 -8 532 0 601 -2 615 -16 15 -14
16 -298 16 -2978 0 -2354 3 -2966 13 -2979 11 -16 60 -17 657 -15 l645 3 0
3620 0 3620 -972 3 -972 2 -20 -29z"/>
<path d="M42630 21429 c-9 -15 -10 -640 -7 -2327 4 -2029 7 -2321 21 -2422 8
-63 16 -146 16 -185 0 -38 7 -97 15 -130 8 -33 15 -82 15 -110 0 -27 7 -72 15
-99 8 -27 15 -66 15 -86 0 -21 7 -57 15 -80 8 -23 15 -54 15 -69 0 -14 6 -46
14 -71 8 -25 21 -68 30 -96 9 -29 16 -58 16 -65 1 -8 9 -32 20 -54 11 -22 19
-44 20 -48 0 -5 21 -52 47 -105 85 -173 236 -377 375 -507 90 -85 196 -173
243 -204 22 -14 42 -29 45 -32 6 -8 101 -73 121 -83 8 -3 28 -15 44 -26 41
-26 131 -70 144 -70 6 0 11 -4 11 -10 0 -5 5 -10 11 -10 11 0 69 -25 132 -56
16 -8 35 -14 42 -14 8 0 29 -6 47 -14 133 -55 419 -127 663 -166 39 -6 97 -16
130 -22 33 -6 103 -14 155 -18 52 -4 138 -13 190 -19 209 -24 687 -31 2001
-31 l1367 0 6 23 c3 12 6 1638 6 3613 0 2779 -3 3593 -12 3602 -9 9 -168 12
-654 12 -576 0 -642 -2 -648 -16 -3 -9 -6 -1349 -6 -2978 0 -2290 -3 -2965
-12 -2974 -19 -19 -1910 -16 -1998 3 -36 8 -84 14 -107 15 -23 0 -54 5 -70 11
-15 7 -48 15 -73 19 -43 7 -66 14 -155 48 -50 19 -249 117 -290 143 -16 10
-39 23 -50 28 -11 5 -35 23 -54 40 -19 17 -38 31 -42 31 -15 0 -156 146 -173
178 -9 18 -21 32 -26 32 -6 0 -10 4 -10 9 0 6 -13 29 -28 53 -41 61 -67 113
-113 223 -13 32 -40 108 -45 130 -3 11 -12 44 -20 73 -57 209 -62 236 -81 447
-13 155 -17 479 -22 2330 l-6 2150 -647 3 c-647 2 -647 2 -658 -19z"/>
<path d="M50605 21438 c-3 -7 -4 -1637 -3 -3623 l3 -3610 644 -3 c589 -2 646
-1 663 14 17 17 18 118 18 2984 0 2293 3 2969 12 2978 18 18 2603 17 2615 0 4
-7 10 -1354 13 -2993 l5 -2980 649 -3 c471 -1 653 1 662 9 12 10 14 488 14
2983 0 2298 3 2975 12 2984 15 15 652 16 908 2 431 -24 517 -30 550 -40 19 -5
55 -10 80 -10 25 0 65 -5 90 -11 25 -6 74 -17 110 -24 149 -30 277 -75 355
-125 22 -13 50 -29 62 -35 23 -11 75 -52 158 -124 57 -51 185 -200 185 -217 0
-6 6 -16 13 -22 7 -6 37 -60 66 -119 29 -59 56 -115 60 -123 5 -9 12 -30 16
-49 4 -18 13 -44 21 -59 8 -15 14 -37 14 -48 0 -12 7 -38 15 -57 8 -20 15 -49
15 -64 0 -15 7 -46 15 -68 8 -22 14 -60 15 -85 0 -25 7 -81 15 -125 12 -68 14
-410 15 -2312 0 -1227 3 -2238 6 -2247 6 -14 72 -16 654 -16 581 0 650 2 665
16 14 15 15 209 12 2208 -3 2186 -6 2426 -39 2676 -6 47 -14 121 -18 165 -6
74 -12 109 -41 265 -28 149 -85 382 -100 412 -5 10 -13 34 -18 55 -26 106
-104 274 -188 407 -107 168 -202 276 -384 436 -43 38 -90 77 -106 87 -15 10
-33 22 -39 28 -13 11 -26 20 -102 70 -30 19 -55 35 -57 35 -2 0 -19 10 -37 23
-31 20 -172 92 -243 123 -16 7 -46 20 -67 28 -20 9 -42 16 -50 16 -7 0 -22 6
-33 14 -11 7 -33 16 -50 18 -16 3 -45 11 -62 17 -18 6 -48 16 -65 22 -18 6
-54 15 -81 19 -26 5 -62 13 -80 19 -39 12 -119 26 -257 46 -58 8 -132 20 -165
26 -93 18 -7133 25 -7140 7z"/>
</g>
</svg>