<?xml version="1.0" standalone="no"?>
<!DOCTYPE svg PUBLIC "-//W3C//DTD SVG 20010904//EN"
 "http://www.w3.org/TR/2001/REC-SVG-20010904/DTD/svg10.dtd">
<svg version="1.0" xmlns="http://www.w3.org/2000/svg"
 width="512.000000pt" height="512.000000pt" viewBox="0 0 512.000000 512.000000"
 preserveAspectRatio="xMidYMid meet">

<g transform="translate(0.000000,512.000000) scale(0.100000,-0.100000)"
fill="#000000" stroke="none">
<path d="M2443 4948 c-45 -22 -48 -57 -16 -188 l30 -119 -426 -3 -426 -3 -56
-26 c-71 -33 -125 -87 -158 -158 l-26 -56 -3 -677 -3 -678 81 0 80 0 2 669 c3
658 3 670 24 697 11 15 33 37 48 48 26 20 43 21 297 24 l269 3 0 -81 0 -80
-205 0 c-217 0 -245 -5 -264 -47 -8 -17 -11 -207 -11 -628 l0 -605 80 0 80 0
0 560 0 560 960 0 960 0 0 -640 0 -640 80 0 80 0 0 685 c0 480 -3 691 -11 708
-19 42 -47 47 -264 47 l-205 0 0 80 0 81 269 -3 c254 -3 271 -4 297 -24 15
-11 37 -33 48 -48 21 -27 21 -38 24 -737 l2 -709 80 0 81 0 -3 718 -3 717 -26
56 c-33 71 -87 125 -158 158 l-56 26 -426 3 -426 3 30 119 c33 133 29 167 -19
189 -33 15 -680 14 -711 -1z m545 -268 c-47 -185 -34 -200 167 -200 l125 0 0
-80 0 -80 -480 0 -480 0 0 80 0 80 125 0 c201 0 214 15 167 200 l-30 120 218
0 218 0 -30 -120z"/>
<path d="M2044 3988 c-12 -5 -27 -21 -33 -34 -15 -33 -15 -355 0 -387 19 -41
49 -47 229 -47 103 0 179 4 193 11 41 19 47 49 47 229 0 180 -6 210 -47 229
-31 14 -360 14 -389 -1z m276 -228 l0 -80 -80 0 -80 0 0 80 0 80 80 0 80 0 0
-80z"/>
<path d="M2640 3920 l0 -80 80 0 80 0 0 80 0 80 -80 0 -80 0 0 -80z"/>
<path d="M2960 3920 l0 -80 320 0 320 0 0 80 0 80 -320 0 -320 0 0 -80z"/>
<path d="M2640 3600 l0 -80 480 0 480 0 0 80 0 80 -480 0 -480 0 0 -80z"/>
<path d="M2044 3268 c-12 -5 -27 -21 -33 -34 -15 -33 -15 -355 0 -387 19 -41
49 -47 229 -47 103 0 179 4 193 11 41 19 47 49 47 229 0 180 -6 210 -47 229
-31 14 -360 14 -389 -1z m276 -228 l0 -80 -80 0 -80 0 0 80 0 80 80 0 80 0 0
-80z"/>
<path d="M2640 3200 l0 -80 80 0 80 0 0 80 0 80 -80 0 -80 0 0 -80z"/>
<path d="M2960 3200 l0 -80 320 0 320 0 0 80 0 80 -320 0 -320 0 0 -80z"/>
<path d="M2640 2880 l0 -80 480 0 480 0 0 80 0 80 -480 0 -480 0 0 -80z"/>
<path d="M4335 2821 c-121 -37 -610 -184 -1087 -326 l-867 -259 -138 -129
c-76 -71 -144 -142 -152 -157 -17 -35 -2 -82 32 -97 12 -6 106 -25 208 -43
l186 -33 874 262 c481 143 877 261 882 261 4 0 7 -37 7 -82 l0 -83 -268 -79
c-147 -44 -270 -81 -273 -82 -4 -2 3 -36 16 -76 18 -60 25 -72 41 -70 10 1
151 43 313 91 196 60 300 96 314 110 19 19 21 31 18 148 -1 71 -5 138 -7 149
-5 18 1 24 28 32 18 6 87 27 153 47 109 34 124 41 165 84 73 75 90 173 46 266
-28 60 -56 87 -116 114 -75 34 -130 27 -375 -48z m335 -113 c26 -28 26 -82 1
-107 -17 -17 -198 -81 -229 -81 -17 0 -24 37 -20 104 l3 59 75 23 c98 30 143
30 170 2z m-405 -131 c4 -29 5 -66 3 -82 l-3 -30 -605 -182 c-333 -100 -612
-182 -621 -182 -11 -1 -22 20 -37 71 -11 40 -19 74 -17 76 5 5 1245 379 1262
381 7 1 14 -21 18 -52z m-1415 -448 c12 -39 18 -75 13 -79 -4 -4 -86 -31 -181
-59 -168 -50 -175 -51 -235 -41 -131 22 -125 13 -50 83 l66 62 171 52 c94 28
176 52 183 52 7 1 22 -31 33 -70z"/>
<path d="M284 2868 c-12 -5 -27 -21 -33 -34 -16 -35 -16 -2593 0 -2627 6 -14
22 -30 36 -36 34 -16 2912 -16 2946 0 14 6 30 22 36 36 16 34 16 1312 0 1346
-6 14 -22 30 -36 36 -17 8 -228 11 -708 11 l-685 0 0 605 c0 421 -3 611 -11
628 -6 14 -22 30 -36 36 -32 15 -1478 14 -1509 -1z m436 -353 c0 -217 5 -245
47 -264 33 -15 513 -15 546 0 42 19 47 47 47 264 l0 205 160 0 160 0 0 -560 0
-560 -640 0 -640 0 0 560 0 560 160 0 160 0 0 -205z m480 45 l0 -160 -160 0
-160 0 0 160 0 160 160 0 160 0 0 -160z m-480 -1325 c0 -217 5 -245 47 -264
33 -15 513 -15 546 0 42 19 47 47 47 264 l0 205 160 0 160 0 0 -560 0 -560
-640 0 -640 0 0 560 0 560 160 0 160 0 0 -205z m480 45 l0 -160 -160 0 -160 0
0 160 0 160 160 0 160 0 0 -160z m960 -45 c0 -217 5 -245 47 -264 33 -15 513
-15 546 0 42 19 47 47 47 264 l0 205 160 0 160 0 0 -560 0 -560 -640 0 -640 0
0 560 0 560 160 0 160 0 0 -205z m480 45 l0 -160 -160 0 -160 0 0 160 0 160
160 0 160 0 0 -160z"/>
<path d="M1360 1840 l0 -80 80 0 80 0 0 80 0 80 -80 0 -80 0 0 -80z"/>
<path d="M1360 560 l0 -80 80 0 80 0 0 80 0 80 -80 0 -80 0 0 -80z"/>
<path d="M2800 560 l0 -80 80 0 80 0 0 80 0 80 -80 0 -80 0 0 -80z"/>
<path d="M4078 1371 c-3 -376 -4 -391 -24 -417 -11 -15 -33 -37 -48 -48 -26
-20 -43 -21 -297 -24 l-269 -3 0 -80 0 -80 278 3 c275 3 277 3 333 29 71 33
125 87 158 158 l26 56 3 398 3 397 -80 0 -80 0 -3 -389z"/>
<path d="M3760 1440 l0 -240 -160 0 -160 0 0 -80 0 -80 205 0 c217 0 245 5
264 47 7 16 11 121 11 308 l0 285 -80 0 -80 0 0 -240z"/>
</g>
</svg>
