<?xml version="1.0" standalone="no"?>
<!DOCTYPE svg PUBLIC "-//W3C//DTD SVG 20010904//EN"
 "http://www.w3.org/TR/2001/REC-SVG-20010904/DTD/svg10.dtd">
<svg version="1.0" xmlns="http://www.w3.org/2000/svg"
 width="512.000000pt" height="512.000000pt" viewBox="0 0 512.000000 512.000000"
 preserveAspectRatio="xMidYMid meet">

<g transform="translate(0.000000,512.000000) scale(0.100000,-0.100000)"
fill="#000000" stroke="none">
<path d="M1425 4388 c-27 -5 -88 -27 -134 -49 -392 -190 -421 -739 -50 -979
315 -204 748 -32 844 336 48 186 -9 398 -145 534 -136 137 -324 194 -515 158z
m286 -185 c162 -80 257 -255 230 -423 -37 -227 -245 -381 -466 -343 -85 15
-143 44 -210 105 -171 156 -172 424 -3 584 94 89 165 116 294 111 78 -2 100
-7 155 -34z"/>
<path d="M3226 4055 c-47 -17 -94 -59 -112 -102 -11 -26 -14 -141 -14 -608 0
-555 1 -577 20 -615 11 -21 36 -51 57 -67 l36 -28 259 -3 c193 -2 258 -6 258
-15 -1 -7 -9 -46 -18 -87 l-18 -75 -617 -3 -618 -2 -11 31 c-6 18 -33 77 -60
132 -139 284 -355 497 -584 578 -180 63 -347 63 -527 0 -229 -80 -450 -301
-590 -588 -25 -50 -49 -105 -55 -121 l-10 -30 -169 -4 c-144 -4 -176 -8 -225
-27 -80 -31 -158 -104 -194 -183 l-29 -63 -3 -569 c-3 -633 -3 -631 64 -734
42 -64 132 -126 205 -141 70 -15 4508 -15 4578 0 73 15 159 75 203 140 69 102
69 99 66 735 l-3 569 -29 62 c-41 90 -124 163 -220 196 -17 5 -141 13 -276 16
l-244 6 -18 75 c-9 41 -17 81 -18 88 0 9 56 12 245 12 221 0 249 2 283 19 42
22 63 43 86 88 14 28 16 97 16 608 0 461 -3 582 -14 608 -17 43 -76 93 -123
106 -25 7 -294 11 -788 11 -611 -1 -757 -3 -789 -15z m1555 -171 c6 -17 9
-220 7 -556 -3 -457 -5 -530 -18 -538 -8 -5 -120 -10 -253 -10 -276 0 -243
-18 -277 145 -26 122 -37 153 -61 165 -10 6 -81 10 -159 10 -78 0 -149 -4
-159 -10 -24 -12 -35 -43 -61 -165 -34 -163 -1 -145 -277 -145 -133 0 -245 5
-253 10 -13 8 -15 82 -18 545 -2 363 1 542 8 555 11 20 23 20 761 20 l749 0
11 -26z m-3099 -823 c232 -59 438 -252 573 -532 l35 -74 -375 -3 c-206 -1
-544 -1 -750 0 l-375 3 35 74 c194 405 533 615 857 532z m2446 -358 c29 -131
53 -241 52 -245 0 -5 -72 -8 -160 -8 -88 0 -160 3 -160 8 0 4 23 114 52 245
l52 237 56 0 56 0 52 -237z m744 -448 c25 -18 52 -49 66 -75 l22 -44 0 -548
c0 -473 -2 -554 -15 -586 -20 -47 -50 -79 -97 -103 -37 -19 -90 -19 -2302 -17
l-2264 3 -39 31 c-21 16 -48 50 -61 74 l-22 44 0 551 c0 516 2 553 19 591 20
44 72 90 118 104 15 5 1041 8 2280 7 l2251 -2 44 -30z"/>
<path d="M2403 2175 c-209 -56 -384 -236 -438 -450 -18 -69 -20 -192 -4 -267
20 -96 92 -230 162 -300 127 -126 263 -183 437 -183 175 0 311 58 437 185 75
75 144 205 164 308 27 142 -5 309 -82 438 -71 118 -227 233 -365 269 -73 19
-240 19 -311 0z m238 -145 c121 -23 233 -99 299 -202 53 -81 74 -165 68 -275
-3 -76 -9 -98 -40 -163 -96 -198 -313 -299 -523 -244 -124 32 -233 123 -292
242 -32 64 -37 85 -41 164 -9 191 73 342 236 431 94 51 189 66 293 47z"/>
<path d="M2290 1765 l0 -35 85 0 c78 0 88 -2 110 -25 43 -42 31 -111 -26 -140
-36 -19 -49 -13 -49 26 0 34 2 34 -50 13 -45 -18 -48 -28 -23 -99 22 -67 103
-149 162 -165 50 -13 121 -5 121 15 0 7 3 26 6 43 l6 30 -44 -5 c-46 -5 -92
11 -117 40 -10 13 -6 17 23 27 20 6 47 25 61 41 l25 30 12 -26 c10 -23 65 -63
73 -53 1 2 8 14 15 27 11 21 10 26 -10 41 -29 22 -20 50 14 50 34 0 48 -30 44
-92 -3 -45 0 -51 24 -66 15 -9 31 -13 35 -8 4 4 8 43 8 87 0 75 -1 80 -32 111
-27 26 -41 33 -75 33 -24 0 -53 -4 -64 -8 -17 -6 -23 -3 -26 15 -3 13 -9 31
-13 41 -7 16 4 17 144 17 l151 0 0 35 0 35 -295 0 -295 0 0 -35z"/>
</g>
</svg>
